$MeshFormat
2.2 0 8
$EndMeshFormat
$Nodes
328
1 -0.75 2.2705600000000002e-16 -1.85405
2 -0.75 -1.37016 -1.2490699999999999
3 -0.75 -0.50738499999999997 1.7832699999999999
4 -1.9938199999999999 -0.156667 -0.011228800000000001
5 -0.75 -0.25587500000000002 -1.8343100000000001
6 -0.75 -0.50738499999999997 -1.7832699999999999
7 -0.75 -0.74809099999999995 -1.6942600000000001
8 -0.75 -0.97603099999999998 -1.5763400000000001
9 -0.75 -1.18319 -1.42486
10 -0.75 0.246251 -1.83565
11 -0.75 0.48846499999999998 -1.78772
12 -0.75 0.72141999999999995 -1.70604
13 -0.75 0.94207200000000002 -1.5952599999999999
14 -0.75 1.14581 -1.4559
15 -0.75 1.3289299999999999 -1.2903
16 -0.75 1.4895099999999999 -1.1027899999999999
17 -0.75 1.62185 -0.89434100000000005
18 -0.75 1.72811 -0.67144000000000004
19 -0.75 1.7942400000000001 -0.46075899999999997
20 -0.75 1.82948 -0.29047099999999998
21 -0.75 1.84677 -0.15745600000000001
22 -0.75 1.8521000000000001 -0.0420682
23 -0.75 1.8501000000000001 0.085364099999999998
24 -0.75 1.83562 0.24648500000000001
25 -0.75 1.79637 0.45169799999999999
26 -0.75 1.72407 0.68058300000000005
27 -0.75 1.6183700000000001 0.90058700000000003
28 -0.75 1.4958899999999999 1.09348
29 -0.75 1.3785400000000001 1.23898
30 -0.75 1.2769699999999999 1.34226
31 -0.75 1.1938 1.41605
32 -0.75 1.1281699999999999 1.47055
33 -0.75 1.0737000000000001 1.5094399999999999
34 -0.75 1.02397 1.5435099999999999
35 -0.75 0.966275 1.58178
36 -0.75 0.88776100000000002 1.62551
37 -0.75 0.78381199999999995 1.67849
38 -0.75 0.64421899999999999 1.7374099999999999
39 -0.75 0.45690900000000001 1.79514
40 -0.75 0.22700100000000001 1.8383400000000001
41 -0.75 -0.019415399999999999 1.8531500000000001
42 -0.75 -0.26550000000000001 1.83297
43 -0.98249299999999995 -1.2896799999999999 -1.1680299999999999
44 -1.19956 -1.1966699999999999 -1.06186
45 -1.3927099999999999 -1.0989500000000001 -0.91975499999999999
46 -1.5657000000000001 -0.95698700000000003 -0.79314499999999999
47 -1.70705 -0.75616099999999997 -0.71321000000000001
48 -1.81368 -0.52820199999999995 -0.65617999999999999
49 -1.9063300000000001 -0.37714799999999998 -0.467194
50 -1.9674199999999999 -0.254465 -0.249695
51 -1.96519 -0.30373099999999997 0.177011
52 -1.9131899999999999 -0.47095999999999999 0.335368
53 -1.8313600000000001 -0.66129199999999999 0.45685100000000001
54 -1.7199500000000001 -0.82405399999999995 0.59472700000000001
55 -1.5938699999999999 -0.93837599999999999 0.75491299999999995
56 -1.4762900000000001 -0.94081499999999996 0.96131200000000006
57 -1.3468899999999999 -0.90977699999999995 1.1615599999999999
58 -1.20624 -0.85110200000000003 1.34735
59 -1.0643800000000001 -0.75359900000000002 1.51545
60 -0.91351800000000005 -0.63564799999999999 1.6614800000000001
61 -0.95883499999999999 -0.120643 -1.7475700000000001
62 -0.96222399999999997 -0.36293199999999998 -1.7135400000000001
63 -0.95985799999999999 -0.81791100000000005 -1.5477099999999999
64 -0.94896400000000003 1.4662200000000001 0.96832099999999999
65 -0.96197999999999995 0.78961000000000003 -1.56294
66 -0.96093099999999998 0.98952799999999996 -1.4438299999999999
67 -0.87261900000000003 1.7966800000000001 0.0268528
68 -0.90879500000000002 1.7501899999999999 -0.315992
69 -0.85984899999999997 1.7939799999999999 -0.19381399999999999
70 -0.84754300000000005 1.80738 -0.085341100000000003
71 -0.95670900000000003 -1.0457099999999999 -1.4084099999999999
72 -0.96099100000000004 -0.595688 -1.6473800000000001
73 -0.96260900000000005 0.115924 -1.74647
74 -0.95901000000000003 1.5891900000000001 -0.73791499999999999
75 -0.96214599999999995 0.34863499999999997 -1.7149700000000001
76 -0.96077699999999999 1.33514 -1.1317299999999999
77 -0.96167499999999995 1.17337 -1.3003400000000001
78 -0.93869599999999997 1.6873899999999999 -0.50748599999999999
79 -0.95757400000000004 1.66978 0.53109700000000004
80 -0.96260400000000002 1.47278 -0.94428400000000001
81 -0.96222700000000005 0.57291099999999995 -1.65324
82 -0.80943100000000001 1.0326900000000001 1.50403
83 -0.87115799999999999 1.27413 1.26661
84 -0.84503899999999998 1.19425 1.3592599999999999
85 -0.80650500000000003 1.08511 1.4703999999999999
86 -0.822994 1.1328400000000001 1.4228000000000001
87 -0.90715800000000002 1.36541 1.1424300000000001
88 -0.80585300000000004 0.98131699999999999 1.5412399999999999
89 -0.82483499999999998 0.91504600000000003 1.5710299999999999
90 -0.84820099999999998 0.83182699999999998 1.60405
91 -0.95762700000000001 0.34432400000000002 1.7184999999999999
92 -0.91252800000000001 0.56260100000000002 1.6853
93 -0.87909800000000005 0.71495699999999995 1.64438
94 -1.1126 -1.0822499999999999 -1.25637
95 -0.95741500000000002 -0.37046400000000002 1.7126600000000001
96 -1.3044 -0.97642899999999999 -1.1556299999999999
97 -0.96410399999999996 0.103242 1.7459800000000001
98 -1.46461 -0.88698100000000002 -1.0290299999999999
99 -1.5895300000000001 -0.74342699999999995 -0.95865500000000003
100 -1.70262 -0.554948 -0.88603399999999999
101 -0.88463700000000001 1.7853000000000001 0.152591
102 -1.8537699999999999 -0.25711699999999998 -0.69621599999999995
103 -0.93104699999999996 1.7392399999999999 0.31811499999999998
104 -1.93937 -0.11336 -0.46396399999999999
105 -0.95838400000000001 1.5877399999999999 0.74158900000000005
106 -1.9833799999999999 -0.0025028199999999998 -0.23133200000000001
107 -1.98437 -0.041748599999999997 0.22286800000000001
108 -1.93926 -0.22364600000000001 0.42504199999999998
109 -0.96301599999999998 -0.13692199999999999 1.7447699999999999
110 -1.76983 -0.58829699999999996 0.71404699999999999
111 -1.6530400000000001 -0.72866799999999998 0.85311199999999998
112 -1.8624799999999999 -0.424458 0.58365800000000001
113 -1.52108 -0.71687500000000004 1.0798399999999999
114 -1.3905700000000001 -0.67130299999999998 1.26891
115 -1.2576099999999999 -0.60318300000000002 1.42913
116 -1.1188800000000001 -0.493066 1.5785
117 -1.2920199999999999 -0.35579499999999997 1.48095
118 -1.4188400000000001 -0.40851700000000002 1.3449500000000001
119 -1.5426200000000001 -0.46230399999999999 1.1819500000000001
120 -1.66333 -0.51083000000000001 0.98208799999999996
121 -1.7799499999999999 -0.359624 0.83337700000000003
122 -1.87405 -0.170347 0.67010999999999998
123 -1.94103 0.038042100000000002 0.47219699999999998
124 -1.17184 1.5087699999999999 0.58544399999999996
125 -1.94062 0.15231700000000001 -0.44769399999999998
126 -1.13297 1.60578 0.352933
127 -1.88202 0.020620900000000001 -0.67370399999999997
128 -1.0521400000000001 1.6945699999999999 0.117284
129 -1.73034 -0.32499400000000001 -0.94347199999999998
130 -1.56534 -0.53019799999999995 -1.125
131 -1.1671499999999999 -0.0142407 1.6204799999999999
132 -1.38869 -0.73372400000000004 -1.2351700000000001
133 -1.15767 -0.241032 1.6106
134 -1.16774 -0.86360199999999998 -1.3711800000000001
135 -1.0359400000000001 0.682697 1.5661099999999999
136 -1.10697 0.48816900000000002 1.5890500000000001
137 -1.1579200000000001 0.22488 1.61059
138 -0.96965299999999999 0.794381 1.55342
139 -0.92943399999999998 0.88854200000000005 1.52945
140 -0.88252900000000001 0.97204900000000005 1.5046900000000001
141 -0.88385100000000005 1.05524 1.4483600000000001
142 -0.92222599999999999 1.10341 1.3868499999999999
143 -0.96416500000000005 1.1620999999999999 1.3081100000000001
144 -1.0192600000000001 1.22631 1.2018899999999999
145 -1.1750700000000001 1.3021400000000001 -0.95764700000000003
146 -1.16536 1.1676800000000001 -1.12629
147 -1.16683 0.42815500000000001 -1.5649299999999999
148 -1.1586000000000001 1.5316099999999999 -0.54854899999999995
149 -1.1689000000000001 1.4258599999999999 -0.76663599999999998
150 -1.1646099999999999 0.216415 -1.60782
151 -0.99128400000000005 1.7307300000000001 -0.102662
152 -1.08433 1.64629 -0.31434400000000001
153 -1.16699 1.0046200000000001 -1.2730999999999999
154 -1.16855 0.82661200000000001 -1.3957900000000001
155 -1.16489 0.63599899999999998 -1.49332
156 -1.09528 1.30271 1.04484
157 -1.1446799999999999 1.4238 0.80720999999999998
158 -1.17675 -0.66355299999999995 -1.47281
159 -1.16584 -0.45035799999999998 -1.55735
160 -1.16256 -0.0060893299999999996 -1.62348
161 -1.1616200000000001 -0.22577700000000001 -1.6087199999999999
162 -1.99309 0.112854 -0.00071873100000000001
163 -1.3756699999999999 -0.50821400000000005 -1.35477
164 -1.16591 1.6176699999999999 -0.094523499999999996
165 -1.3601099999999999 -0.11272 -1.45892
166 -1.3526100000000001 -0.31276799999999999 -1.4358500000000001
167 -1.2859 1.2306999999999999 0.90960099999999999
168 -1.3545700000000001 0.66251700000000002 -1.30732
169 -1.3614999999999999 0.83389100000000005 -1.19933
170 -1.3530899999999999 0.092311500000000005 -1.46834
171 -1.28426 1.4930699999999999 -0.33458900000000003
172 -1.3490599999999999 1.36294 -0.55984999999999996
173 -1.35362 0.48421900000000001 -1.3858999999999999
174 -1.3546199999999999 0.289489 -1.4394800000000001
175 -1.3470200000000001 0.99266900000000002 -1.0910599999999999
176 -1.3668499999999999 1.2426900000000001 -0.76141400000000004
177 -1.36507 1.1129599999999999 -0.94141300000000006
178 -0.98062700000000003 0.97694099999999995 1.43811
179 -1.1906099999999999 1.1324399999999999 1.1362000000000001
180 -1.1043400000000001 1.07742 1.2680400000000001
181 -1.0284899999999999 1.04478 1.3560000000000001
182 -1.06477 0.85528800000000005 1.4607600000000001
183 -1.2981199999999999 0.394432 1.4661599999999999
184 -1.20133 0.67671700000000001 1.4467099999999999
185 -1.36372 -0.13222700000000001 1.4528399999999999
186 -1.3413999999999999 0.120869 1.47706
187 -1.5509599999999999 -0.28089999999999998 -1.22726
188 -1.2650600000000001 1.53766 0.142377
189 -1.8559300000000001 0.28339700000000001 -0.68198000000000003
190 -1.3459300000000001 1.3240400000000001 0.65590999999999999
191 -1.3343 1.4355599999999999 0.39394600000000002
192 -1.8649500000000001 0.089442300000000002 0.71304500000000004
193 -1.7781 -0.094365500000000005 0.90393199999999996
194 -1.67615 -0.25429299999999999 1.0577399999999999
195 -1.5425899999999999 -0.196301 1.2552700000000001
196 -1.9625600000000001 0.27101500000000001 -0.21792400000000001
197 -1.9693000000000001 0.21963299999999999 0.24742
198 -1.7916700000000001 -0.058821699999999998 -0.88269299999999995
199 -1.50972 0.054636799999999999 1.3063499999999999
200 -1.655 0.0099483499999999999 1.1213200000000001
201 -1.7572099999999999 0.165243 0.932365
202 -1.5016700000000001 1.23299 0.46280900000000003
203 -1.7819100000000001 0.185727 -0.88281299999999996
204 -1.4607699999999999 1.35301 0.17583699999999999
205 -1.3665499999999999 1.4536 -0.094769500000000007
206 -1.4009199999999999 0.57095099999999999 1.30491
207 -1.4762900000000001 0.29447200000000001 1.3139099999999999
208 -1.14584 0.91790899999999997 1.35307
209 -1.5387900000000001 1.0327599999999999 -0.74810200000000004
210 -1.5274399999999999 0.88251199999999996 -0.93612499999999998
211 -1.52522 0.342499 -1.2429600000000001
212 -1.5312300000000001 1.1628400000000001 -0.54931600000000003
213 -1.47516 1.3064 -0.32998699999999997
214 -1.51698 0.16617599999999999 -1.2872600000000001
215 -1.5260400000000001 0.50842100000000001 -1.1860299999999999
216 -1.5335399999999999 0.67594299999999996 -1.0901799999999999
217 -1.4748000000000001 1.11528 0.75498600000000005
218 -1.3797999999999999 1.02189 1.01938
219 -1.52955 -0.0222784 -1.2832399999999999
220 -1.91198 0.29859200000000002 0.49395
221 -1.9009100000000001 0.42307699999999998 -0.43845699999999999
222 -1.6729799999999999 -0.087634900000000002 -1.0908899999999999
223 -1.96004 0.37539600000000001 0.017210900000000001
224 -1.67269 0.168488 -1.07908
225 -1.6341399999999999 0.25980799999999998 1.11893
226 -1.5643 0.89263499999999996 0.86561900000000003
227 -1.69503 0.438332 -0.96235199999999999
228 -1.6701900000000001 0.66476199999999996 -0.87265999999999999
229 -1.5474600000000001 1.2603200000000001 -0.0646476
230 -1.6430100000000001 1.09659 -0.30518699999999999
231 -1.68981 0.80108400000000002 -0.700623
232 -1.68085 0.94261399999999995 -0.52571699999999999
233 -1.56077 0.49655500000000002 1.1427099999999999
234 -1.6248499999999999 1.1374 0.23485800000000001
235 -1.6227400000000001 1.0219499999999999 0.56298199999999998
236 -1.8024500000000001 0.53088800000000003 -0.68016699999999997
237 -1.82864 0.34554499999999999 0.72665500000000005
238 -1.9059900000000001 0.55876999999999999 -0.212452
239 -1.9226300000000001 0.479213 0.267536
240 -1.2657400000000001 0.95605499999999999 1.21245
241 -1.2913600000000001 0.77410699999999999 1.31253
242 -1.81392 0.68893400000000005 -0.473026
243 -1.45661 0.78223500000000001 1.12398
244 -1.73045 0.92668399999999995 0.37125000000000002
245 -1.70017 1.0463199999999999 -0.0501184
246 -1.7811300000000001 0.85039799999999999 -0.29543799999999998
247 -1.7159199999999999 0.78973400000000005 0.64719800000000005
248 -1.714 0.43188300000000002 0.93259099999999995
249 -1.8471299999999999 0.56040999999999996 0.51315500000000003
250 -1.8994200000000001 0.61942799999999998 0.057198300000000001
251 -1.83541 0.78166899999999995 -0.092405600000000004
252 -1.7863100000000001 0.88497599999999998 0.114048
253 -1.6227100000000001 0.66205499999999995 0.95937499999999998
254 -1.7545599999999999 0.59409800000000001 0.74935300000000005
255 -1.8349899999999999 0.72498799999999997 0.32006299999999999
256 -0.75 -1.5247299999999999 -1.05138
257 -0.75 -1.65412 -0.836395
258 -0.75 -1.7506200000000001 -0.60480999999999996
259 -0.75 -1.81725 -0.36290800000000001
260 -0.75 -1.8487800000000001 -0.114047
261 -0.75 -1.84772 0.13685600000000001
262 -0.75 -1.81203 0.38513500000000001
263 -0.75 -1.74336 0.62646000000000002
264 -0.75 -1.6430100000000001 0.85634299999999997
265 -0.75 -1.5118199999999999 1.0702199999999999
266 -0.75 -1.3540099999999999 1.2652099999999999
267 -0.75 -1.17001 1.4358
268 -0.75 -0.96605700000000005 1.5819000000000001
269 -0.75 -0.74286799999999997 1.6965699999999999
270 -0.94411500000000004 -1.50627 -0.91267500000000001
271 -1.2763199999999999 -1.2924899999999999 -0.83489599999999997
272 -1.46991 -1.1620999999999999 -0.68976099999999996
273 -0.947075 -1.7581500000000001 0.011542800000000001
274 -0.94805600000000001 -1.7380599999999999 0.25481199999999998
275 -1.9571099999999999 -0.398169 -0.051304599999999999
276 -1.8584400000000001 -0.59595900000000002 -0.42719099999999999
277 -0.996363 -0.993116 1.4170799999999999
278 -0.946654 -1.1999599999999999 1.2867200000000001
279 -0.945465 -1.69096 0.482377
280 -0.92619200000000002 -1.3716699999999999 1.11825
281 -0.94671400000000006 -1.61961 -0.68478000000000006
282 -1.0867899999999999 -1.37191 -0.96282999999999996
283 -0.94728500000000004 -1.6986600000000001 -0.45980500000000002
284 -0.94685399999999997 -1.7435799999999999 -0.22684399999999999
285 -1.6529100000000001 -0.964974 -0.57296899999999995
286 -0.97389199999999998 -1.47868 0.92383400000000004
287 -0.94555400000000001 -1.61063 0.70587299999999997
288 -1.75309 -0.88889099999999999 0.35676000000000002
289 -1.91716 -0.50311899999999998 -0.24213899999999999
290 -1.92161 -0.53150399999999998 0.099925899999999998
291 -1.8592 -0.69473600000000002 0.21344199999999999
292 -1.61551 -1.0398700000000001 0.54601599999999995
293 -1.4432499999999999 -1.1411500000000001 0.78023699999999996
294 -1.31558 -1.11313 1.01386
295 -1.1636599999999999 -1.0667 1.2242599999999999
296 -1.1027899999999999 -1.26549 1.0820799999999999
297 -1.87435 -0.68655500000000003 -0.056016299999999998
298 -1.2297400000000001 -1.3029200000000001 0.88253499999999996
299 -1.4795100000000001 -1.2291700000000001 0.53989699999999996
300 -1.63574 -1.1076999999999999 0.30356
301 -1.77979 -0.89559 0.11774999999999999
302 -1.1287100000000001 -1.4602599999999999 0.76064799999999999
303 -1.1346799999999999 -1.6106400000000001 -0.321876
304 -1.1340600000000001 -1.46828 -0.74152099999999999
305 -1.1354299999999999 -1.5517300000000001 -0.53904700000000005
306 -1.1325700000000001 -1.5469200000000001 0.55872100000000002
307 -1.13496 -1.60667 0.34845599999999999
308 -1.13472 -1.63974 -0.099315399999999998
309 -1.1327400000000001 -1.63924 0.12359199999999999
310 -1.56281 -1.1578599999999999 -0.45724199999999998
311 -1.3408500000000001 -1.35365 -0.59791700000000003
312 -1.77816 -0.76285199999999997 -0.49484400000000001
313 -1.29481 -1.46783 -0.40038499999999999
314 -1.3134600000000001 -1.35684 0.65325900000000003
315 -1.4523200000000001 -1.3263199999999999 -0.35698200000000002
316 -1.3117300000000001 -1.50579 0.0138049
317 -1.31172 -1.4891700000000001 0.22359499999999999
318 -1.31569 -1.4382900000000001 0.438195
319 -1.3119700000000001 -1.49427 -0.19192500000000001
320 -1.68028 -1.0796600000000001 0.046937800000000002
321 -1.76708 -0.92652699999999999 -0.118726
322 -1.4790399999999999 -1.3036799999999999 0.32287700000000003
323 -1.8322099999999999 -0.75410100000000002 -0.255382
324 -1.7187699999999999 -0.956708 -0.34254600000000002
325 -1.6251800000000001 -1.1450499999999999 -0.19211600000000001
326 -1.4530099999999999 -1.36904 0.093814099999999997
327 -1.48241 -1.3326 -0.126642
328 -1.5730599999999999 -1.22889 0.089251700000000003
$EndNodes
$Elements
599
1 2 0 61 1 5
2 2 0 62 5 6
3 2 0 8 63 7
4 2 0 2 43 9
5 2 0 28 27 64
6 2 0 65 13 12
7 2 0 66 14 13
8 2 0 23 22 67
9 2 0 20 19 68
10 2 0 69 21 20
11 2 0 71 8 9
12 2 0 72 6 7
13 2 0 73 10 1
14 2 0 74 18 17
15 2 0 75 11 10
16 2 0 76 16 15
17 2 0 77 15 14
18 2 0 78 19 18
19 2 0 80 17 16
20 2 0 81 12 11
21 2 0 82 34 33
22 2 0 30 29 83
23 2 0 85 82 33
24 2 0 87 29 28
25 2 0 88 34 82
26 2 0 89 35 88
27 2 0 39 91 40
28 2 0 93 38 37
29 2 0 94 71 43
30 2 0 95 3 42
31 2 0 72 7 63
32 2 0 97 41 40
33 2 0 100 99 47
34 2 0 101 24 23
35 2 0 103 25 24
36 2 0 104 102 49
37 2 0 105 27 26
38 2 0 104 127 102
39 2 0 51 107 4
40 2 0 139 138 90
41 2 0 109 42 41
42 2 0 54 110 53
43 2 0 111 110 54
44 2 0 112 52 53
45 2 0 115 114 58
46 2 0 116 115 59
47 2 0 98 45 46
48 2 0 96 44 45
49 2 0 62 61 5
50 2 0 71 9 43
51 2 0 25 79 26
52 2 0 84 31 30
53 2 0 102 48 49
54 2 0 106 50 4
55 2 0 67 128 101
56 2 0 66 13 65
57 2 0 70 22 21
58 2 0 70 67 22
59 2 0 69 20 68
60 2 0 70 151 67
61 2 0 70 21 69
62 2 0 69 151 70
63 2 0 71 134 63
64 2 0 71 63 8
65 2 0 72 62 6
66 2 0 99 46 47
67 2 0 73 1 61
68 2 0 153 175 146
69 2 0 74 78 18
70 2 0 81 65 12
71 2 0 75 10 73
72 2 0 77 14 66
73 2 0 191 124 126
74 2 0 80 74 17
75 2 0 77 76 15
76 2 0 78 68 19
77 2 0 105 64 27
78 2 0 148 78 74
79 2 0 105 157 64
80 2 0 80 16 76
81 2 0 80 76 145
82 2 0 81 11 75
83 2 0 86 32 31
84 2 0 90 37 36
85 2 0 143 142 84
86 2 0 87 28 64
87 2 0 85 33 32
88 2 0 84 30 83
89 2 0 141 140 82
90 2 0 142 86 84
91 2 0 86 85 32
92 2 0 86 31 84
93 2 0 87 83 29
94 2 0 88 35 34
95 2 0 108 51 52
96 2 0 89 36 35
97 2 0 92 39 38
98 2 0 90 36 89
99 2 0 140 88 82
100 2 0 93 37 90
101 2 0 136 137 91
102 2 0 92 91 39
103 2 0 93 138 135
104 2 0 93 92 38
105 2 0 94 43 44
106 2 0 158 72 63
107 2 0 95 60 3
108 2 0 96 94 44
109 2 0 159 62 72
110 2 0 97 40 91
111 2 0 109 95 42
112 2 0 98 96 45
113 2 0 161 61 62
114 2 0 98 132 96
115 2 0 160 73 61
116 2 0 132 99 130
117 2 0 99 98 46
118 2 0 100 47 48
119 2 0 100 130 99
120 2 0 147 81 75
121 2 0 101 23 67
122 2 0 48 102 129
123 2 0 150 75 73
124 2 0 153 77 66
125 2 0 126 124 79
126 2 0 103 24 101
127 2 0 25 103 79
128 2 0 146 76 77
129 2 0 104 49 50
130 2 0 154 66 65
131 2 0 105 26 79
132 2 0 162 106 4
133 2 0 106 104 50
134 2 0 106 125 104
135 2 0 124 105 79
136 2 0 196 125 106
137 2 0 137 97 91
138 2 0 108 107 51
139 2 0 135 92 93
140 2 0 113 56 57
141 2 0 109 41 97
142 2 0 114 57 58
143 2 0 131 109 97
144 2 0 111 55 56
145 2 0 133 95 109
146 2 0 112 108 52
147 2 0 111 54 55
148 2 0 111 120 110
149 2 0 112 53 110
150 2 0 113 111 56
151 2 0 114 113 57
152 2 0 114 119 113
153 2 0 116 60 95
154 2 0 115 58 59
155 2 0 115 118 114
156 2 0 116 117 115
157 2 0 116 59 60
158 2 0 122 108 112
159 2 0 121 112 110
160 2 0 133 116 95
161 2 0 118 115 117
162 2 0 118 117 185
163 2 0 120 111 113
164 2 0 119 114 118
165 2 0 194 193 121
166 2 0 120 113 119
167 2 0 195 119 118
168 2 0 121 110 120
169 2 0 123 107 108
170 2 0 122 112 121
171 2 0 156 87 64
172 2 0 207 186 183
173 2 0 123 108 122
174 2 0 197 162 107
175 2 0 149 74 80
176 2 0 191 190 124
177 2 0 126 79 103
178 2 0 128 103 101
179 2 0 127 104 125
180 2 0 48 129 100
181 2 0 155 65 81
182 2 0 128 126 103
183 2 0 152 68 78
184 2 0 164 205 188
185 2 0 198 102 127
186 2 0 174 211 173
187 2 0 130 100 129
188 2 0 185 117 133
189 2 0 192 123 122
190 2 0 134 94 96
191 2 0 132 98 99
192 2 0 163 159 158
193 2 0 133 117 116
194 2 0 133 109 131
195 2 0 134 71 94
196 2 0 134 96 132
197 2 0 134 132 158
198 2 0 144 83 87
199 2 0 157 190 167
200 2 0 89 140 139
201 2 0 136 91 92
202 2 0 136 183 137
203 2 0 136 92 135
204 2 0 137 131 97
205 2 0 138 182 135
206 2 0 138 93 90
207 2 0 139 182 138
208 2 0 139 90 89
209 2 0 89 88 140
210 2 0 141 85 86
211 2 0 141 82 85
212 2 0 178 140 141
213 2 0 142 141 86
214 2 0 156 64 157
215 2 0 142 178 141
216 2 0 143 84 83
217 2 0 144 143 83
218 2 0 188 126 128
219 2 0 227 203 189
220 2 0 146 145 76
221 2 0 189 127 125
222 2 0 187 130 129
223 2 0 148 74 149
224 2 0 164 128 151
225 2 0 175 169 210
226 2 0 149 80 145
227 2 0 172 171 148
228 2 0 166 159 163
229 2 0 150 147 75
230 2 0 67 151 128
231 2 0 69 68 151
232 2 0 152 78 148
233 2 0 152 171 164
234 2 0 152 151 68
235 2 0 169 154 168
236 2 0 153 146 77
237 2 0 154 153 66
238 2 0 155 81 147
239 2 0 155 173 168
240 2 0 155 154 65
241 2 0 155 168 154
242 2 0 156 179 144
243 2 0 156 144 87
244 2 0 157 105 124
245 2 0 157 167 156
246 2 0 158 63 134
247 2 0 159 72 158
248 2 0 163 132 130
249 2 0 160 150 73
250 2 0 161 62 159
251 2 0 160 170 150
252 2 0 161 160 61
253 2 0 162 4 107
254 2 0 163 158 132
255 2 0 165 160 161
256 2 0 164 151 152
257 2 0 187 163 130
258 2 0 166 161 159
259 2 0 222 129 198
260 2 0 166 165 161
261 2 0 187 165 166
262 2 0 184 136 135
263 2 0 223 162 197
264 2 0 180 143 144
265 2 0 177 145 146
266 2 0 176 149 145
267 2 0 169 153 154
268 2 0 170 160 165
269 2 0 174 147 150
270 2 0 171 152 148
271 2 0 204 191 188
272 2 0 176 145 177
273 2 0 172 148 149
274 2 0 173 155 147
275 2 0 174 150 170
276 2 0 173 215 168
277 2 0 127 203 198
278 2 0 174 173 147
279 2 0 221 125 196
280 2 0 175 153 169
281 2 0 177 210 209
282 2 0 176 172 149
283 2 0 177 146 175
284 2 0 177 209 176
285 2 0 181 142 143
286 2 0 139 178 182
287 2 0 179 156 167
288 2 0 208 178 181
289 2 0 180 144 179
290 2 0 142 181 178
291 2 0 208 182 178
292 2 0 181 143 180
293 2 0 180 240 208
294 2 0 241 206 184
295 2 0 139 140 178
296 2 0 184 135 182
297 2 0 218 179 167
298 2 0 186 131 137
299 2 0 184 206 183
300 2 0 184 183 136
301 2 0 186 137 183
302 2 0 185 133 131
303 2 0 193 122 121
304 2 0 186 185 131
305 2 0 187 166 163
306 2 0 214 174 170
307 2 0 188 128 164
308 2 0 191 202 190
309 2 0 127 189 203
310 2 0 212 172 176
311 2 0 190 157 124
312 2 0 191 126 188
313 2 0 199 185 186
314 2 0 220 197 123
315 2 0 193 192 122
316 2 0 194 120 119
317 2 0 225 201 200
318 2 0 195 199 200
319 2 0 194 121 120
320 2 0 118 185 195
321 2 0 195 194 119
322 2 0 200 193 194
323 2 0 196 106 162
324 2 0 213 171 172
325 2 0 238 221 196
326 2 0 197 107 123
327 2 0 198 129 102
328 2 0 201 192 193
329 2 0 199 195 185
330 2 0 200 194 195
331 2 0 201 193 200
332 2 0 206 207 183
333 2 0 217 167 190
334 2 0 237 192 201
335 2 0 204 188 205
336 2 0 212 232 230
337 2 0 219 187 222
338 2 0 216 169 168
339 2 0 204 202 191
340 2 0 252 255 244
341 2 0 205 164 171
342 2 0 205 229 204
343 2 0 233 225 207
344 2 0 199 207 225
345 2 0 207 199 186
346 2 0 208 241 184
347 2 0 208 181 180
348 2 0 233 243 253
349 2 0 227 224 203
350 2 0 210 177 175
351 2 0 211 214 224
352 2 0 213 205 171
353 2 0 212 176 209
354 2 0 213 172 212
355 2 0 219 170 165
356 2 0 214 211 174
357 2 0 198 224 222
358 2 0 216 210 169
359 2 0 215 173 211
360 2 0 216 228 210
361 2 0 216 168 215
362 2 0 216 215 227
363 2 0 217 190 202
364 2 0 180 179 240
365 2 0 239 223 197
366 2 0 218 167 217
367 2 0 240 241 208
368 2 0 187 219 165
369 2 0 219 214 170
370 2 0 224 219 222
371 2 0 220 123 192
372 2 0 247 253 226
373 2 0 235 217 202
374 2 0 236 227 189
375 2 0 221 189 125
376 2 0 222 187 129
377 2 0 224 214 219
378 2 0 244 235 234
379 2 0 223 196 162
380 2 0 198 203 224
381 2 0 227 215 211
382 2 0 199 225 200
383 2 0 226 218 217
384 2 0 249 239 220
385 2 0 243 240 218
386 2 0 227 211 224
387 2 0 231 209 210
388 2 0 228 216 227
389 2 0 236 189 221
390 2 0 234 202 204
391 2 0 229 205 213
392 2 0 230 213 212
393 2 0 230 229 213
394 2 0 231 228 236
395 2 0 245 234 229
396 2 0 232 212 209
397 2 0 231 210 228
398 2 0 246 245 230
399 2 0 242 236 221
400 2 0 232 209 231
401 2 0 233 207 206
402 2 0 248 201 225
403 2 0 234 204 229
404 2 0 235 226 217
405 2 0 235 202 234
406 2 0 236 228 227
407 2 0 242 232 231
408 2 0 237 220 192
409 2 0 248 225 233
410 2 0 247 226 235
411 2 0 238 242 221
412 2 0 238 196 223
413 2 0 234 252 244
414 2 0 239 197 220
415 2 0 244 247 235
416 2 0 250 238 223
417 2 0 240 179 218
418 2 0 240 243 241
419 2 0 208 184 182
420 2 0 253 248 233
421 2 0 246 230 232
422 2 0 242 231 236
423 2 0 243 218 226
424 2 0 243 206 241
425 2 0 255 247 244
426 2 0 252 251 250
427 2 0 245 229 230
428 2 0 246 242 238
429 2 0 246 251 245
430 2 0 246 232 242
431 2 0 254 237 248
432 2 0 249 220 237
433 2 0 248 237 201
434 2 0 253 243 226
435 2 0 249 255 239
436 2 0 249 254 247
437 2 0 250 223 239
438 2 0 251 246 238
439 2 0 234 245 252
440 2 0 251 238 250
441 2 0 252 245 251
442 2 0 255 250 239
443 2 0 253 254 248
444 2 0 233 206 243
445 2 0 254 253 247
446 2 0 254 249 237
447 2 0 255 252 250
448 2 0 255 249 247
449 2 0 43 2 256
450 2 0 270 256 257
451 2 0 271 44 282
452 2 0 272 45 271
453 2 0 273 260 261
454 2 0 274 261 262
455 2 0 275 51 4
456 2 0 48 276 49
457 2 0 59 58 277
458 2 0 278 266 267
459 2 0 60 59 269
460 2 0 279 262 263
461 2 0 280 265 266
462 2 0 281 257 258
463 2 0 282 43 270
464 2 0 283 258 259
465 2 0 284 259 260
466 2 0 286 264 265
467 2 0 287 263 264
468 2 0 59 268 269
469 2 0 289 50 49
470 2 0 290 51 275
471 2 0 296 280 278
472 2 0 58 295 277
473 2 0 277 267 268
474 2 0 60 269 3
475 2 0 270 43 256
476 2 0 271 45 44
477 2 0 304 270 281
478 2 0 272 46 45
479 2 0 285 47 46
480 2 0 311 272 271
481 2 0 292 55 54
482 2 0 293 56 55
483 2 0 274 273 261
484 2 0 275 4 50
485 2 0 312 47 285
486 2 0 288 54 53
487 2 0 48 312 276
488 2 0 289 275 50
489 2 0 277 268 59
490 2 0 277 295 278
491 2 0 278 267 277
492 2 0 286 287 264
493 2 0 279 307 274
494 2 0 279 274 262
495 2 0 294 57 56
496 2 0 280 266 278
497 2 0 293 292 299
498 2 0 281 270 257
499 2 0 282 44 43
500 2 0 282 304 271
501 2 0 283 281 258
502 2 0 284 260 273
503 2 0 284 303 283
504 2 0 284 283 259
505 2 0 323 289 276
506 2 0 285 46 272
507 2 0 286 265 280
508 2 0 287 279 263
509 2 0 287 286 302
510 2 0 310 285 272
511 2 0 291 53 52
512 2 0 289 49 276
513 2 0 275 297 290
514 2 0 290 52 51
515 2 0 291 288 53
516 2 0 323 297 289
517 2 0 291 52 290
518 2 0 301 300 288
519 2 0 275 289 297
520 2 0 292 54 288
521 2 0 293 55 292
522 2 0 306 279 287
523 2 0 286 296 298
524 2 0 294 56 293
525 2 0 286 298 302
526 2 0 294 295 57
527 2 0 295 58 57
528 2 0 295 294 296
529 2 0 296 278 295
530 2 0 298 294 293
531 2 0 301 288 291
532 2 0 297 291 290
533 2 0 298 296 294
534 2 0 314 293 299
535 2 0 314 302 298
536 2 0 300 292 288
537 2 0 310 324 285
538 2 0 300 299 292
539 2 0 308 284 273
540 2 0 318 314 299
541 2 0 301 291 297
542 2 0 301 320 300
543 2 0 302 314 306
544 2 0 286 280 296
545 2 0 309 317 316
546 2 0 305 281 283
547 2 0 305 283 303
548 2 0 311 310 272
549 2 0 304 282 270
550 2 0 305 311 304
551 2 0 305 304 281
552 2 0 306 287 302
553 2 0 309 273 274
554 2 0 307 279 306
555 2 0 322 299 300
556 2 0 308 303 284
557 2 0 309 274 307
558 2 0 319 313 303
559 2 0 309 316 308
560 2 0 309 308 273
561 2 0 313 305 303
562 2 0 327 325 315
563 2 0 321 301 297
564 2 0 311 315 310
565 2 0 311 271 304
566 2 0 323 321 297
567 2 0 48 47 312
568 2 0 313 311 305
569 2 0 315 325 310
570 2 0 318 307 306
571 2 0 314 298 293
572 2 0 315 311 313
573 2 0 316 319 308
574 2 0 317 309 307
575 2 0 318 306 314
576 2 0 318 317 307
577 2 0 318 322 317
578 2 0 319 303 308
579 2 0 319 315 313
580 2 0 328 322 300
581 2 0 327 319 316
582 2 0 324 312 285
583 2 0 321 320 301
584 2 0 324 310 325
585 2 0 322 318 299
586 2 0 326 316 317
587 2 0 323 276 312
588 2 0 323 324 321
589 2 0 324 323 312
590 2 0 325 320 321
591 2 0 325 321 324
592 2 0 327 326 328
593 2 0 326 317 322
594 2 0 328 300 320
595 2 0 327 315 319
596 2 0 328 320 325
597 2 0 327 316 326
598 2 0 328 326 322
599 2 0 328 325 327
$EndElements
