# vtk DataFile Version 3.0
Unstructured Grid Example
ASCII
DATASET UNSTRUCTURED_GRID

FIELD Einc 6
freq 1 1 double
5e+07
k 2 1 double
1.04792 0
type 1 1 string
point
position 3 1 double
-0.5 0 0
j_real 3 1 double
0 0 1
j_imag 3 1 double
0 0 0
POINTS 328 double
-0.75 2.27056e-16 -1.85405
-0.75 -1.37016 -1.24907
-0.75 -0.507385 1.78327
-1.99382 -0.156667 -0.0112288
-0.75 -0.255875 -1.83431
-0.75 -0.507385 -1.78327
-0.75 -0.748091 -1.69426
-0.75 -0.976031 -1.57634
-0.75 -1.18319 -1.42486
-0.75 0.246251 -1.83565
-0.75 0.488465 -1.78772
-0.75 0.72142 -1.70604
-0.75 0.942072 -1.59526
-0.75 1.14581 -1.4559
-0.75 1.32893 -1.2903
-0.75 1.48951 -1.10279
-0.75 1.62185 -0.894341
-0.75 1.72811 -0.67144
-0.75 1.79424 -0.460759
-0.75 1.82948 -0.290471
-0.75 1.84677 -0.157456
-0.75 1.8521 -0.0420682
-0.75 1.8501 0.0853641
-0.75 1.83562 0.246485
-0.75 1.79637 0.451698
-0.75 1.72407 0.680583
-0.75 1.61837 0.900587
-0.75 1.49589 1.09348
-0.75 1.37854 1.23898
-0.75 1.27697 1.34226
-0.75 1.1938 1.41605
-0.75 1.12817 1.47055
-0.75 1.0737 1.50944
-0.75 1.02397 1.54351
-0.75 0.966275 1.58178
-0.75 0.887761 1.62551
-0.75 0.783812 1.67849
-0.75 0.644219 1.73741
-0.75 0.456909 1.79514
-0.75 0.227001 1.83834
-0.75 -0.0194154 1.85315
-0.75 -0.2655 1.83297
-0.982493 -1.28968 -1.16803
-1.19956 -1.19667 -1.06186
-1.39271 -1.09895 -0.919755
-1.5657 -0.956987 -0.793145
-1.70705 -0.756161 -0.71321
-1.81368 -0.528202 -0.65618
-1.90633 -0.377148 -0.467194
-1.96742 -0.254465 -0.249695
-1.96519 -0.303731 0.177011
-1.91319 -0.47096 0.335368
-1.83136 -0.661292 0.456851
-1.71995 -0.824054 0.594727
-1.59387 -0.938376 0.754913
-1.47629 -0.940815 0.961312
-1.34689 -0.909777 1.16156
-1.20624 -0.851102 1.34735
-1.06438 -0.753599 1.51545
-0.913518 -0.635648 1.66148
-0.958835 -0.120643 -1.74757
-0.962224 -0.362932 -1.71354
-0.959858 -0.817911 -1.54771
-0.948964 1.46622 0.968321
-0.96198 0.78961 -1.56294
-0.960931 0.989528 -1.44383
-0.872619 1.79668 0.0268528
-0.908795 1.75019 -0.315992
-0.859849 1.79398 -0.193814
-0.847543 1.80738 -0.0853411
-0.956709 -1.04571 -1.40841
-0.960991 -0.595688 -1.64738
-0.962609 0.115924 -1.74647
-0.95901 1.58919 -0.737915
-0.962146 0.348635 -1.71497
-0.960777 1.33514 -1.13173
-0.961675 1.17337 -1.30034
-0.938696 1.68739 -0.507486
-0.957574 1.66978 0.531097
-0.962604 1.47278 -0.944284
-0.962227 0.572911 -1.65324
-0.809431 1.03269 1.50403
-0.871158 1.27413 1.26661
-0.845039 1.19425 1.35926
-0.806505 1.08511 1.4704
-0.822994 1.13284 1.4228
-0.907158 1.36541 1.14243
-0.805853 0.981317 1.54124
-0.824835 0.915046 1.57103
-0.848201 0.831827 1.60405
-0.957627 0.344324 1.7185
-0.912528 0.562601 1.6853
-0.879098 0.714957 1.64438
-1.1126 -1.08225 -1.25637
-0.957415 -0.370464 1.71266
-1.3044 -0.976429 -1.15563
-0.964104 0.103242 1.74598
-1.46461 -0.886981 -1.02903
-1.58953 -0.743427 -0.958655
-1.70262 -0.554948 -0.886034
-0.884637 1.7853 0.152591
-1.85377 -0.257117 -0.696216
-0.931047 1.73924 0.318115
-1.93937 -0.11336 -0.463964
-0.958384 1.58774 0.741589
-1.98338 -0.00250282 -0.231332
-1.98437 -0.0417486 0.222868
-1.93926 -0.223646 0.425042
-0.963016 -0.136922 1.74477
-1.76983 -0.588297 0.714047
-1.65304 -0.728668 0.853112
-1.86248 -0.424458 0.583658
-1.52108 -0.716875 1.07984
-1.39057 -0.671303 1.26891
-1.25761 -0.603183 1.42913
-1.11888 -0.493066 1.5785
-1.29202 -0.355795 1.48095
-1.41884 -0.408517 1.34495
-1.54262 -0.462304 1.18195
-1.66333 -0.51083 0.982088
-1.77995 -0.359624 0.833377
-1.87405 -0.170347 0.67011
-1.94103 0.0380421 0.472197
-1.17184 1.50877 0.585444
-1.94062 0.152317 -0.447694
-1.13297 1.60578 0.352933
-1.88202 0.0206209 -0.673704
-1.05214 1.69457 0.117284
-1.73034 -0.324994 -0.943472
-1.56534 -0.530198 -1.125
-1.16715 -0.0142407 1.62048
-1.38869 -0.733724 -1.23517
-1.15767 -0.241032 1.6106
-1.16774 -0.863602 -1.37118
-1.03594 0.682697 1.56611
-1.10697 0.488169 1.58905
-1.15792 0.22488 1.61059
-0.969653 0.794381 1.55342
-0.929434 0.888542 1.52945
-0.882529 0.972049 1.50469
-0.883851 1.05524 1.44836
-0.922226 1.10341 1.38685
-0.964165 1.1621 1.30811
-1.01926 1.22631 1.20189
-1.17507 1.30214 -0.957647
-1.16536 1.16768 -1.12629
-1.16683 0.428155 -1.56493
-1.1586 1.53161 -0.548549
-1.1689 1.42586 -0.766636
-1.16461 0.216415 -1.60782
-0.991284 1.73073 -0.102662
-1.08433 1.64629 -0.314344
-1.16699 1.00462 -1.2731
-1.16855 0.826612 -1.39579
-1.16489 0.635999 -1.49332
-1.09528 1.30271 1.04484
-1.14468 1.4238 0.80721
-1.17675 -0.663553 -1.47281
-1.16584 -0.450358 -1.55735
-1.16256 -0.00608933 -1.62348
-1.16162 -0.225777 -1.60872
-1.99309 0.112854 -0.000718731
-1.37567 -0.508214 -1.35477
-1.16591 1.61767 -0.0945235
-1.36011 -0.11272 -1.45892
-1.35261 -0.312768 -1.43585
-1.2859 1.2307 0.909601
-1.35457 0.662517 -1.30732
-1.3615 0.833891 -1.19933
-1.35309 0.0923115 -1.46834
-1.28426 1.49307 -0.334589
-1.34906 1.36294 -0.55985
-1.35362 0.484219 -1.3859
-1.35462 0.289489 -1.43948
-1.34702 0.992669 -1.09106
-1.36685 1.24269 -0.761414
-1.36507 1.11296 -0.941413
-0.980627 0.976941 1.43811
-1.19061 1.13244 1.1362
-1.10434 1.07742 1.26804
-1.02849 1.04478 1.356
-1.06477 0.855288 1.46076
-1.29812 0.394432 1.46616
-1.20133 0.676717 1.44671
-1.36372 -0.132227 1.45284
-1.3414 0.120869 1.47706
-1.55096 -0.2809 -1.22726
-1.26506 1.53766 0.142377
-1.85593 0.283397 -0.68198
-1.34593 1.32404 0.65591
-1.3343 1.43556 0.393946
-1.86495 0.0894423 0.713045
-1.7781 -0.0943655 0.903932
-1.67615 -0.254293 1.05774
-1.54259 -0.196301 1.25527
-1.96256 0.271015 -0.217924
-1.9693 0.219633 0.24742
-1.79167 -0.0588217 -0.882693
-1.50972 0.0546368 1.30635
-1.655 0.00994835 1.12132
-1.75721 0.165243 0.932365
-1.50167 1.23299 0.462809
-1.78191 0.185727 -0.882813
-1.46077 1.35301 0.175837
-1.36655 1.4536 -0.0947695
-1.40092 0.570951 1.30491
-1.47629 0.294472 1.31391
-1.14584 0.917909 1.35307
-1.53879 1.03276 -0.748102
-1.52744 0.882512 -0.936125
-1.52522 0.342499 -1.24296
-1.53123 1.16284 -0.549316
-1.47516 1.3064 -0.329987
-1.51698 0.166176 -1.28726
-1.52604 0.508421 -1.18603
-1.53354 0.675943 -1.09018
-1.4748 1.11528 0.754986
-1.3798 1.02189 1.01938
-1.52955 -0.0222784 -1.28324
-1.91198 0.298592 0.49395
-1.90091 0.423077 -0.438457
-1.67298 -0.0876349 -1.09089
-1.96004 0.375396 0.0172109
-1.67269 0.168488 -1.07908
-1.63414 0.259808 1.11893
-1.5643 0.892635 0.865619
-1.69503 0.438332 -0.962352
-1.67019 0.664762 -0.87266
-1.54746 1.26032 -0.0646476
-1.64301 1.09659 -0.305187
-1.68981 0.801084 -0.700623
-1.68085 0.942614 -0.525717
-1.56077 0.496555 1.14271
-1.62485 1.1374 0.234858
-1.62274 1.02195 0.562982
-1.80245 0.530888 -0.680167
-1.82864 0.345545 0.726655
-1.90599 0.55877 -0.212452
-1.92263 0.479213 0.267536
-1.26574 0.956055 1.21245
-1.29136 0.774107 1.31253
-1.81392 0.688934 -0.473026
-1.45661 0.782235 1.12398
-1.73045 0.926684 0.37125
-1.70017 1.04632 -0.0501184
-1.78113 0.850398 -0.295438
-1.71592 0.789734 0.647198
-1.714 0.431883 0.932591
-1.84713 0.56041 0.513155
-1.89942 0.619428 0.0571983
-1.83541 0.781669 -0.0924056
-1.78631 0.884976 0.114048
-1.62271 0.662055 0.959375
-1.75456 0.594098 0.749353
-1.83499 0.724988 0.320063
-0.75 -1.52473 -1.05138
-0.75 -1.65412 -0.836395
-0.75 -1.75062 -0.60481
-0.75 -1.81725 -0.362908
-0.75 -1.84878 -0.114047
-0.75 -1.84772 0.136856
-0.75 -1.81203 0.385135
-0.75 -1.74336 0.62646
-0.75 -1.64301 0.856343
-0.75 -1.51182 1.07022
-0.75 -1.35401 1.26521
-0.75 -1.17001 1.4358
-0.75 -0.966057 1.5819
-0.75 -0.742868 1.69657
-0.944115 -1.50627 -0.912675
-1.27632 -1.29249 -0.834896
-1.46991 -1.1621 -0.689761
-0.947075 -1.75815 0.0115428
-0.948056 -1.73806 0.254812
-1.95711 -0.398169 -0.0513046
-1.85844 -0.595959 -0.427191
-0.996363 -0.993116 1.41708
-0.946654 -1.19996 1.28672
-0.945465 -1.69096 0.482377
-0.926192 -1.37167 1.11825
-0.946714 -1.61961 -0.68478
-1.08679 -1.37191 -0.96283
-0.947285 -1.69866 -0.459805
-0.946854 -1.74358 -0.226844
-1.65291 -0.964974 -0.572969
-0.973892 -1.47868 0.923834
-0.945554 -1.61063 0.705873
-1.75309 -0.888891 0.35676
-1.91716 -0.503119 -0.242139
-1.92161 -0.531504 0.0999259
-1.8592 -0.694736 0.213442
-1.61551 -1.03987 0.546016
-1.44325 -1.14115 0.780237
-1.31558 -1.11313 1.01386
-1.16366 -1.0667 1.22426
-1.10279 -1.26549 1.08208
-1.87435 -0.686555 -0.0560163
-1.22974 -1.30292 0.882535
-1.47951 -1.22917 0.539897
-1.63574 -1.1077 0.30356
-1.77979 -0.89559 0.11775
-1.12871 -1.46026 0.760648
-1.13468 -1.61064 -0.321876
-1.13406 -1.46828 -0.741521
-1.13543 -1.55173 -0.539047
-1.13257 -1.54692 0.558721
-1.13496 -1.60667 0.348456
-1.13472 -1.63974 -0.0993154
-1.13274 -1.63924 0.123592
-1.56281 -1.15786 -0.457242
-1.34085 -1.35365 -0.597917
-1.77816 -0.762852 -0.494844
-1.29481 -1.46783 -0.400385
-1.31346 -1.35684 0.653259
-1.45232 -1.32632 -0.356982
-1.31173 -1.50579 0.0138049
-1.31172 -1.48917 0.223595
-1.31569 -1.43829 0.438195
-1.31197 -1.49427 -0.191925
-1.68028 -1.07966 0.0469378
-1.76708 -0.926527 -0.118726
-1.47904 -1.30368 0.322877
-1.83221 -0.754101 -0.255382
-1.71877 -0.956708 -0.342546
-1.62518 -1.14505 -0.192116
-1.45301 -1.36904 0.0938141
-1.48241 -1.3326 -0.126642
-1.57306 -1.22889 0.0892517

CELLS 599 2396
3 60 0 4
3 61 4 5
3 7 62 6
3 1 42 8
3 27 26 63
3 64 12 11
3 65 13 12
3 22 21 66
3 19 18 67
3 68 20 19
3 70 7 8
3 71 5 6
3 72 9 0
3 73 17 16
3 74 10 9
3 75 15 14
3 76 14 13
3 77 18 17
3 79 16 15
3 80 11 10
3 81 33 32
3 29 28 82
3 84 81 32
3 86 28 27
3 87 33 81
3 88 34 87
3 38 90 39
3 92 37 36
3 93 70 42
3 94 2 41
3 71 6 62
3 96 40 39
3 99 98 46
3 100 23 22
3 102 24 23
3 103 101 48
3 104 26 25
3 103 126 101
3 50 106 3
3 138 137 89
3 108 41 40
3 53 109 52
3 110 109 53
3 111 51 52
3 114 113 57
3 115 114 58
3 97 44 45
3 95 43 44
3 61 60 4
3 70 8 42
3 24 78 25
3 83 30 29
3 101 47 48
3 105 49 3
3 66 127 100
3 65 12 64
3 69 21 20
3 69 66 21
3 68 19 67
3 69 150 66
3 69 20 68
3 68 150 69
3 70 133 62
3 70 62 7
3 71 61 5
3 98 45 46
3 72 0 60
3 152 174 145
3 73 77 17
3 80 64 11
3 74 9 72
3 76 13 65
3 190 123 125
3 79 73 16
3 76 75 14
3 77 67 18
3 104 63 26
3 147 77 73
3 104 156 63
3 79 15 75
3 79 75 144
3 80 10 74
3 85 31 30
3 89 36 35
3 142 141 83
3 86 27 63
3 84 32 31
3 83 29 82
3 140 139 81
3 141 85 83
3 85 84 31
3 85 30 83
3 86 82 28
3 87 34 33
3 107 50 51
3 88 35 34
3 91 38 37
3 89 35 88
3 139 87 81
3 92 36 89
3 135 136 90
3 91 90 38
3 92 137 134
3 92 91 37
3 93 42 43
3 157 71 62
3 94 59 2
3 95 93 43
3 158 61 71
3 96 39 90
3 108 94 41
3 97 95 44
3 160 60 61
3 97 131 95
3 159 72 60
3 131 98 129
3 98 97 45
3 99 46 47
3 99 129 98
3 146 80 74
3 100 22 66
3 47 101 128
3 149 74 72
3 152 76 65
3 125 123 78
3 102 23 100
3 24 102 78
3 145 75 76
3 103 48 49
3 153 65 64
3 104 25 78
3 161 105 3
3 105 103 49
3 105 124 103
3 123 104 78
3 195 124 105
3 136 96 90
3 107 106 50
3 134 91 92
3 112 55 56
3 108 40 96
3 113 56 57
3 130 108 96
3 110 54 55
3 132 94 108
3 111 107 51
3 110 53 54
3 110 119 109
3 111 52 109
3 112 110 55
3 113 112 56
3 113 118 112
3 115 59 94
3 114 57 58
3 114 117 113
3 115 116 114
3 115 58 59
3 121 107 111
3 120 111 109
3 132 115 94
3 117 114 116
3 117 116 184
3 119 110 112
3 118 113 117
3 193 192 120
3 119 112 118
3 194 118 117
3 120 109 119
3 122 106 107
3 121 111 120
3 155 86 63
3 206 185 182
3 122 107 121
3 196 161 106
3 148 73 79
3 190 189 123
3 125 78 102
3 127 102 100
3 126 103 124
3 47 128 99
3 154 64 80
3 127 125 102
3 151 67 77
3 163 204 187
3 197 101 126
3 173 210 172
3 129 99 128
3 184 116 132
3 191 122 121
3 133 93 95
3 131 97 98
3 162 158 157
3 132 116 115
3 132 108 130
3 133 70 93
3 133 95 131
3 133 131 157
3 143 82 86
3 156 189 166
3 88 139 138
3 135 90 91
3 135 182 136
3 135 91 134
3 136 130 96
3 137 181 134
3 137 92 89
3 138 181 137
3 138 89 88
3 88 87 139
3 140 84 85
3 140 81 84
3 177 139 140
3 141 140 85
3 155 63 156
3 141 177 140
3 142 83 82
3 143 142 82
3 187 125 127
3 226 202 188
3 145 144 75
3 188 126 124
3 186 129 128
3 147 73 148
3 163 127 150
3 174 168 209
3 148 79 144
3 171 170 147
3 165 158 162
3 149 146 74
3 66 150 127
3 68 67 150
3 151 77 147
3 151 170 163
3 151 150 67
3 168 153 167
3 152 145 76
3 153 152 65
3 154 80 146
3 154 172 167
3 154 153 64
3 154 167 153
3 155 178 143
3 155 143 86
3 156 104 123
3 156 166 155
3 157 62 133
3 158 71 157
3 162 131 129
3 159 149 72
3 160 61 158
3 159 169 149
3 160 159 60
3 161 3 106
3 162 157 131
3 164 159 160
3 163 150 151
3 186 162 129
3 165 160 158
3 221 128 197
3 165 164 160
3 186 164 165
3 183 135 134
3 222 161 196
3 179 142 143
3 176 144 145
3 175 148 144
3 168 152 153
3 169 159 164
3 173 146 149
3 170 151 147
3 203 190 187
3 175 144 176
3 171 147 148
3 172 154 146
3 173 149 169
3 172 214 167
3 126 202 197
3 173 172 146
3 220 124 195
3 174 152 168
3 176 209 208
3 175 171 148
3 176 145 174
3 176 208 175
3 180 141 142
3 138 177 181
3 178 155 166
3 207 177 180
3 179 143 178
3 141 180 177
3 207 181 177
3 180 142 179
3 179 239 207
3 240 205 183
3 138 139 177
3 183 134 181
3 217 178 166
3 185 130 136
3 183 205 182
3 183 182 135
3 185 136 182
3 184 132 130
3 192 121 120
3 185 184 130
3 186 165 162
3 213 173 169
3 187 127 163
3 190 201 189
3 126 188 202
3 211 171 175
3 189 156 123
3 190 125 187
3 198 184 185
3 219 196 122
3 192 191 121
3 193 119 118
3 224 200 199
3 194 198 199
3 193 120 119
3 117 184 194
3 194 193 118
3 199 192 193
3 195 105 161
3 212 170 171
3 237 220 195
3 196 106 122
3 197 128 101
3 200 191 192
3 198 194 184
3 199 193 194
3 200 192 199
3 205 206 182
3 216 166 189
3 236 191 200
3 203 187 204
3 211 231 229
3 218 186 221
3 215 168 167
3 203 201 190
3 251 254 243
3 204 163 170
3 204 228 203
3 232 224 206
3 198 206 224
3 206 198 185
3 207 240 183
3 207 180 179
3 232 242 252
3 226 223 202
3 209 176 174
3 210 213 223
3 212 204 170
3 211 175 208
3 212 171 211
3 218 169 164
3 213 210 173
3 197 223 221
3 215 209 168
3 214 172 210
3 215 227 209
3 215 167 214
3 215 214 226
3 216 189 201
3 179 178 239
3 238 222 196
3 217 166 216
3 239 240 207
3 186 218 164
3 218 213 169
3 223 218 221
3 219 122 191
3 246 252 225
3 234 216 201
3 235 226 188
3 220 188 124
3 221 186 128
3 223 213 218
3 243 234 233
3 222 195 161
3 197 202 223
3 226 214 210
3 198 224 199
3 225 217 216
3 248 238 219
3 242 239 217
3 226 210 223
3 230 208 209
3 227 215 226
3 235 188 220
3 233 201 203
3 228 204 212
3 229 212 211
3 229 228 212
3 230 227 235
3 244 233 228
3 231 211 208
3 230 209 227
3 245 244 229
3 241 235 220
3 231 208 230
3 232 206 205
3 247 200 224
3 233 203 228
3 234 225 216
3 234 201 233
3 235 227 226
3 241 231 230
3 236 219 191
3 247 224 232
3 246 225 234
3 237 241 220
3 237 195 222
3 233 251 243
3 238 196 219
3 243 246 234
3 249 237 222
3 239 178 217
3 239 242 240
3 207 183 181
3 252 247 232
3 245 229 231
3 241 230 235
3 242 217 225
3 242 205 240
3 254 246 243
3 251 250 249
3 244 228 229
3 245 241 237
3 245 250 244
3 245 231 241
3 253 236 247
3 248 219 236
3 247 236 200
3 252 242 225
3 248 254 238
3 248 253 246
3 249 222 238
3 250 245 237
3 233 244 251
3 250 237 249
3 251 244 250
3 254 249 238
3 252 253 247
3 232 205 242
3 253 252 246
3 253 248 236
3 254 251 249
3 254 248 246
3 42 1 255
3 269 255 256
3 270 43 281
3 271 44 270
3 272 259 260
3 273 260 261
3 274 50 3
3 47 275 48
3 58 57 276
3 277 265 266
3 59 58 268
3 278 261 262
3 279 264 265
3 280 256 257
3 281 42 269
3 282 257 258
3 283 258 259
3 285 263 264
3 286 262 263
3 58 267 268
3 288 49 48
3 289 50 274
3 295 279 277
3 57 294 276
3 276 266 267
3 59 268 2
3 269 42 255
3 270 44 43
3 303 269 280
3 271 45 44
3 284 46 45
3 310 271 270
3 291 54 53
3 292 55 54
3 273 272 260
3 274 3 49
3 311 46 284
3 287 53 52
3 47 311 275
3 288 274 49
3 276 267 58
3 276 294 277
3 277 266 276
3 285 286 263
3 278 306 273
3 278 273 261
3 293 56 55
3 279 265 277
3 292 291 298
3 280 269 256
3 281 43 42
3 281 303 270
3 282 280 257
3 283 259 272
3 283 302 282
3 283 282 258
3 322 288 275
3 284 45 271
3 285 264 279
3 286 278 262
3 286 285 301
3 309 284 271
3 290 52 51
3 288 48 275
3 274 296 289
3 289 51 50
3 290 287 52
3 322 296 288
3 290 51 289
3 300 299 287
3 274 288 296
3 291 53 287
3 292 54 291
3 305 278 286
3 285 295 297
3 293 55 292
3 285 297 301
3 293 294 56
3 294 57 56
3 294 293 295
3 295 277 294
3 297 293 292
3 300 287 290
3 296 290 289
3 297 295 293
3 313 292 298
3 313 301 297
3 299 291 287
3 309 323 284
3 299 298 291
3 307 283 272
3 317 313 298
3 300 290 296
3 300 319 299
3 301 313 305
3 285 279 295
3 308 316 315
3 304 280 282
3 304 282 302
3 310 309 271
3 303 281 269
3 304 310 303
3 304 303 280
3 305 286 301
3 308 272 273
3 306 278 305
3 321 298 299
3 307 302 283
3 308 273 306
3 318 312 302
3 308 315 307
3 308 307 272
3 312 304 302
3 326 324 314
3 320 300 296
3 310 314 309
3 310 270 303
3 322 320 296
3 47 46 311
3 312 310 304
3 314 324 309
3 317 306 305
3 313 297 292
3 314 310 312
3 315 318 307
3 316 308 306
3 317 305 313
3 317 316 306
3 317 321 316
3 318 302 307
3 318 314 312
3 327 321 299
3 326 318 315
3 323 311 284
3 320 319 300
3 323 309 324
3 321 317 298
3 325 315 316
3 322 275 311
3 322 323 320
3 323 322 311
3 324 319 320
3 324 320 323
3 326 325 327
3 325 316 321
3 327 299 319
3 326 314 318
3 327 319 324
3 326 315 325
3 327 325 321
3 327 324 326

CELL_TYPES 599
5
5
5
5
5
5
5
5
5
5
5
5
5
5
5
5
5
5
5
5
5
5
5
5
5
5
5
5
5
5
5
5
5
5
5
5
5
5
5
5
5
5
5
5
5
5
5
5
5
5
5
5
5
5
5
5
5
5
5
5
5
5
5
5
5
5
5
5
5
5
5
5
5
5
5
5
5
5
5
5
5
5
5
5
5
5
5
5
5
5
5
5
5
5
5
5
5
5
5
5
5
5
5
5
5
5
5
5
5
5
5
5
5
5
5
5
5
5
5
5
5
5
5
5
5
5
5
5
5
5
5
5
5
5
5
5
5
5
5
5
5
5
5
5
5
5
5
5
5
5
5
5
5
5
5
5
5
5
5
5
5
5
5
5
5
5
5
5
5
5
5
5
5
5
5
5
5
5
5
5
5
5
5
5
5
5
5
5
5
5
5
5
5
5
5
5
5
5
5
5
5
5
5
5
5
5
5
5
5
5
5
5
5
5
5
5
5
5
5
5
5
5
5
5
5
5
5
5
5
5
5
5
5
5
5
5
5
5
5
5
5
5
5
5
5
5
5
5
5
5
5
5
5
5
5
5
5
5
5
5
5
5
5
5
5
5
5
5
5
5
5
5
5
5
5
5
5
5
5
5
5
5
5
5
5
5
5
5
5
5
5
5
5
5
5
5
5
5
5
5
5
5
5
5
5
5
5
5
5
5
5
5
5
5
5
5
5
5
5
5
5
5
5
5
5
5
5
5
5
5
5
5
5
5
5
5
5
5
5
5
5
5
5
5
5
5
5
5
5
5
5
5
5
5
5
5
5
5
5
5
5
5
5
5
5
5
5
5
5
5
5
5
5
5
5
5
5
5
5
5
5
5
5
5
5
5
5
5
5
5
5
5
5
5
5
5
5
5
5
5
5
5
5
5
5
5
5
5
5
5
5
5
5
5
5
5
5
5
5
5
5
5
5
5
5
5
5
5
5
5
5
5
5
5
5
5
5
5
5
5
5
5
5
5
5
5
5
5
5
5
5
5
5
5
5
5
5
5
5
5
5
5
5
5
5
5
5
5
5
5
5
5
5
5
5
5
5
5
5
5
5
5
5
5
5
5
5
5
5
5
5
5
5
5
5
5
5
5
5
5
5
5
5
5
5
5
5
5
5
5
5
5
5
5
5
5
5
5
5
5
5
5
5
5
5
5
5
5
5
5
5
5
5
5
5
5
5
5
5
5
5
5
5
5
5
5
5
5
5
5
5
5
5
5
5
5
5
5
5
5
5
5
5
5
5
5
5
5
5
5
5
5
5
5
5
5
5
5
5
5
5
5
5
5
5
5
5
5
5
5
5
5
5
5
5
5
5
5
5
CELL_DATA 599
VECTORS source_real double
0.00361722 11370.5 -877.154
0.00861262 -9556.05 1939.18
0.0232041 14302.3 -7398.91
0.019769 2662.88 -2503.76
-0.0365843 -772.177 1216.1
0.00127999 5600.44 2811.73
0.0122526 -4345.41 -2972.3
-0.0122678 127.954 -8146.2
0.0119294 851.923 4115.95
0.000146882 3221.28 24788.8
0.00726454 -2265.77 1656.82
0.0160863 -7518.63 2780.26
0.0065412 4467.21 333.722
0.00356506 1616.39 3390.63
0.014145 13462 2663.94
0.0123671 -419.904 -490.306
0.0106705 -263.643 -238.435
0.0038502 1251.87 3988.25
0.0110453 12710.6 20021.5
0.0061741 -13822.3 -4846.63
-0.0196527 123758 -84776
-0.0132536 -13987.2 14222.8
-143385 25761.9 -96921.1
-0.0254673 -8914.09 11051.8
155456 100928 18488.7
17470.5 -22999.3 23844.6
-0.0192069 -4336.5 814.717
0.000870981 4568.43 -1928.24
-3630.92 5306.34 -2029.09
-0.0152446 -829.341 -170.397
-20553.6 7654.64 7812.84
-0.000593795 -11549.3 694.289
5663.1 -4785.55 -7428.07
-0.0130017 1910.6 -21256.1
-0.0237354 3723.39 -19466.9
3022.15 1914.47 -11100.2
0.0104003 4496.68 -9359.03
-682.214 8785.56 54.8567
-379.231 2817.72 -1577.3
41869.6 3983.19 21902.4
-0.00451123 -1568.13 -128.62
-2704.24 866.682 -6775.13
-2672.3 -1096.39 -7561.58
-5360.38 17802.1 -2344.74
-4395.96 29882.7 11538.8
8055.78 3383.54 7467.34
-4763.89 -5119.73 13042.5
-7644.6 2886.6 6627.12
17946 -463.314 -8942.64
-4198.18 759.46 2189.48
-0.0151387 -766.076 2425.23
-0.00822319 -26193.6 23241.4
132.543 -5235.75 2702.19
-200.059 5379.8 -1217.68
-14445.5 -8032.74 2435.02
-10321.7 -2133.36 4741.86
0.00310864 597.153 12916.2
-20833.1 -9468.84 3600.68
19437.2 10405.6 7253.69
-18243.1 -9801.28 -5352.18
-11139.6 -3579.32 21045.7
-13717 -7516.4 -4808.81
14001.6 -4916.94 -6922.97
14466.8 2542.42 -10306.5
-1485.56 -8193.56 3130.25
3151.23 -4942.51 -1319.01
-6060.82 7707.66 3051.64
6096.94 1830.27 -4866.49
331.75 1525.39 3555.79
18638.9 -302.253 -10206.1
8249.5 9436.03 -2863.33
4389.39 -847.429 -3440.5
4977.04 6565.4 -9268.64
-17527.2 -943.785 16356.8
-260.052 -432.878 -265.291
6.40772 1004.94 4020.81
9211.99 6351.1 -1897.68
-564.192 -2801.5 -6599.81
9469.51 -1011.95 13226
21822.9 15604.7 2485.04
21046 6347.84 -12908.1
-25474.8 -3770.82 12317.4
-0.0221834 -48556.7 40320.9
0.00785287 1143.58 -582.845
-22451.7 7846.27 -21703.3
10816.6 776.735 7958.94
-0.00777979 -3167.64 2261.63
12719.9 -14095.2 21593.2
77655.1 -99207.9 108697
2535.57 38567 -29995.5
-56073.5 -45748.2 2231.87
26109.4 -27031.7 37705.8
4985.28 -9117.3 13383.3
-0.008393 -18020 11953.8
-576.584 -5622.8 -9490.01
-0.0010222 -36063.7 20087.4
-0.0163589 9642.57 -2972.11
-39907.3 -21608.7 -9333.69
164453 -25444.2 109444
-3212.63 2719.32 -2990.16
-4822.34 -3038.23 -2563.9
11616.4 2074.57 5374.55
-14331.2 -4373.94 -6485.97
-4530.33 7067.74 -5011.27
-1795.33 2419.38 -775.304
-19602.3 1843.78 12240.4
3829.47 -3330.75 1079.06
-5688.74 -2748.87 8383.82
-1530.24 14074.4 -3064.05
6128.26 -7775.07 4087.36
-637.29 -1149.24 -493.359
-8044.54 2169.34 8601.85
17016 -6871.71 -9582.69
881.323 -3065.48 1225.8
-5253.04 -26799.6 3351.52
1301.54 934.15 -2338.48
2894.1 187.694 -5007.03
5263.02 -394.79 -11599.1
1424.69 3147.65 -4199.21
-24434.3 -7092.5 13350.6
-13357.7 -5441.45 -14468.7
-376.581 -2989.16 2298.99
7792.33 -24626.3 -8182.93
4206.37 -4261.49 -6558.45
3643.94 2547.57 -298.609
1268.83 3498.77 -19957.3
18994.9 10944.8 -4830.97
-255.925 -1858.9 -1720.43
3234.79 -6665.56 -11418
-9956.78 -15624.5 -2378.99
-11711 -3968.97 -6097.42
-377.517 -1324.1 8382.23
1068.8 -12729.3 -2522.63
-2222.49 -6092.57 11318.5
-11238.5 -8684.67 3470.27
2360.47 9959.15 -11098.8
6138.81 3493.46 3329.18
-27.0964 -3446.23 -2660.42
-6517.33 -2803.62 -2673.05
-4618.88 8983.68 929.546
-8754.61 -6376.56 -4465.58
31683.5 -7261.42 28685.4
-8495.69 24159.2 -5023.49
6947.66 -319.14 12026.9
-557.537 -3295.65 -840.235
-3701.46 18470.8 -603.124
3488.8 7764.67 16573.9
1926.04 -7444.57 -1232.29
-3705.16 -479.776 -11814.2
-5553.5 15264.3 3974.35
34381.2 -33855.7 18966.2
23063.6 -38215.5 9875.92
2189.65 5872.48 3055.41
-0.94575 9093.39 4579.1
-18578 22548.7 -9652.56
-1519.36 -4181.93 -2598.65
8971.3 836.586 6323.98
2510.83 4259.42 10523.4
4866.01 -17068.5 1484.94
-5485.47 4.06245 -3604.97
-2411.01 3033.99 -1217.07
4927.73 6045.43 6053.65
1039.71 16281 12638.4
-16861.5 16141.5 -12539.5
-6207.8 884.708 -11602.7
18976.5 -7613.04 23443.8
-5516.86 20861.5 -856.934
5046.72 -5077.86 7333.8
-1963.56 3050.5 -9854.19
4092.42 -17019.6 3046.24
5224.39 13950.7 -13508
-4191.49 -14338.9 -1279.29
-2835.91 -227.191 -10229.4
963.546 9327.76 6625.52
-17285.7 -22008.1 -17872
8320.45 9175.22 -4265.82
16118.7 6912.86 12232.6
-5380.37 -3560.58 4279.91
-3068.04 1565.95 11601.7
1136.31 648.393 -2825.92
17825.3 25158.9 -1247.08
1271.58 -1568.63 14883.5
-1650.83 -2561.85 -6724.02
8109.36 6639.92 1998.47
-204.812 4569.24 -269.646
6200.16 16117.4 -2079.62
1129.18 3118.18 -3276.46
5199.34 6937.43 5377.41
2571.61 -18284.9 7023.96
3869.1 -8505.01 2833.29
2800.02 998.349 -4441.22
3648.55 1986.07 -3867.79
-4972.45 -1678.04 -4171.96
19066.8 7239.18 12933.4
197.935 6512.21 -4899.91
2991.69 -9194.94 3217.8
-3401.11 -5946.2 6466.45
-4002.9 13641.1 -17488.2
-1661.01 1542.55 -5257.12
-68983.9 33715.9 -58444.1
7612.38 -15143.3 8755.93
-243.784 19683.6 -4668.83
6273.63 -15186.9 9212.3
-17594 18289.4 -12774.5
-13628.6 -3823.82 -6984.12
-6763.37 -11020.7 1609.91
26297.9 -29370.6 32215.9
-20443.2 47347.9 -36878.1
11156.2 -45462.9 33732.2
-70921.5 -3196.14 -39403.7
-147069 -31065 -59211.9
73292.1 22620.6 32224
-49724.9 23405.6 -48511.6
-11883.8 -5975.02 -4702.29
-1747.64 -36749.3 25437.2
3370.76 14362.6 -11155.4
6237.63 17328 -12614.9
640.373 -1610.9 16040.9
862.621 -3466.69 -3331.01
7277.78 4436.75 -1991.11
-920.563 -4073.33 1785.24
469.262 4322.07 -2103.74
8382.7 -635.681 -14723.3
-9467.68 -6232.93 -6434.76
-13869.3 -8536.28 11855.2
-17875.1 -23555.7 -15889.3
-19933.1 -19181.6 -5834.44
-1508.7 565.944 1151.22
11942 -21212.2 -11996.8
-12015.5 -6794.96 1239.2
8105.23 2087.47 -19604.5
-1346.81 -2805.34 -6823.15
10366.8 3786.44 -26938
3171.99 933.635 -6860.31
13526.1 17495.6 -3151.46
6487.55 -1766.76 -7314.32
3844.11 -4338.31 -6008.55
20735 24479 -5508.54
2919.7 -23732.8 -13030.2
-30931.5 -12284.5 16156
-28388 -19134.1 16420.5
4804.59 2417.53 2074.35
-4474.04 11713.5 -17586.3
5210.72 -3322.78 14967.5
-10230.4 -9528.57 952.01
-3610.71 -8935.48 7470.66
4309.58 9451.19 -6408.98
7503.77 -5919.15 -5943.53
2338.67 -21685.9 -2926.37
-8992.95 10848.3 3720.49
1815.1 21523.4 -58.4662
-12657 -22100.7 9754.09
357.38 7907.8 8743.91
8423.91 -2064.31 -7141.89
-11982 19375.6 8156.48
2976.03 1161.83 -6971.09
-141.588 -6893.02 2527.98
-8539.99 5718.94 5678.15
-1687.28 -7351.97 4405.6
2626.79 10732.4 -3777.19
2906.08 -5709.28 -2239.63
6276.97 -13445.3 9817.39
688.071 5978.63 -1091.35
14325.5 7923.23 4772.52
6633.08 6137.9 -1109.65
-15988.3 -11206.1 6234.62
3721.22 17381.3 8439.47
-3303.46 23738.4 2298.81
10973 -5917.38 -10051.2
-8276.3 -13415.2 -28592.4
-11895.3 -10032.3 -5726.49
-9376.56 -9749.22 235.541
8357.23 5376.29 -4061.71
18863.3 -12180.5 -20376.5
-20547.9 6213.19 17968.6
2511.86 12036.3 2476.61
1818.38 3171.08 -3782.81
6659.21 -8532.15 -8208.79
2963.99 12235.2 -6291.25
-14697.7 511.54 16020.6
2447.2 -4827.54 -9442.92
-644.577 2473.55 5993.32
11851.1 7743.01 -6199.08
-8598.29 -9423.28 2131.33
-9529.81 -10155.9 1217.82
-26074.5 -40461.5 8808.9
-496.399 -6523.9 7151.65
7801.25 17577.8 -5991.2
13580.9 7211.64 5426.85
17268.2 4380.42 8738.18
15697.2 20099.3 -2356.94
-6372.1 -4614.6 -1174.85
-10562.2 -3959.99 -6721.27
10699.1 18869.3 1212.89
-66846 29678 -62741
-11543.2 -13728.8 -1852.63
-2607.86 -4327.85 1445.52
-17036.3 8461.48 -13685.2
-9383.69 8846.52 -11943.9
-7943.04 14991 -11675.2
777.813 17947.7 -2414.41
17976.7 401.604 14528.7
-5456.96 701.596 -12041.1
4104.02 -7773.56 3278.57
-1991.98 -4803.47 3556.83
-18413.9 -8913.2 17964.5
2706.46 1498.48 15791.5
7266.25 4858.01 7400.93
-769.614 -1109.53 1641.11
-936.887 -230.996 1659.65
2901.75 3516.3 -2068.78
-12589 -9122.87 -5726.23
2304.06 -23742.4 2176.31
2142.53 7763.63 6963.47
4385.67 8280.16 11083.1
-1760.17 -15848.9 -8520.41
-2946.82 2990.8 -5231.25
-11495.8 8407.9 -14185.4
-2523.28 4955.05 -2571.7
4559.32 4605.15 5580.25
-5114.33 -12104.5 -10286.8
-765.78 -8613.1 -2199.97
75.229 -11603.6 -12228.8
-11321.8 -4982.47 20958
-914.463 1747.69 8884.68
1390.92 8303.37 6474.72
-2461.3 -2030.29 5833.85
3669.36 11855.3 6935.86
-14030.7 -2097.01 -15315.8
-891.904 -10074.2 -2545.34
2614.18 -5356.96 4880.89
1963.07 -10326.2 5259.07
-2029.53 2134.33 -6969.83
3475.81 11175.8 4791.3
3288.31 3457.68 -8296.13
6653.6 10227.4 -50.6859
-5110.17 15241.1 4928.55
12884.9 8578.97 -10069.7
-1421.35 -4415.79 10908.8
1242.8 3600.66 -3576.25
23959 19820.6 2010.08
99.6082 106.678 788.407
-610.691 -3579.73 289.524
5255.18 -2394.81 7006.26
3017.97 -22797.6 5849.6
13907.5 16063.3 2515.75
-10685.6 -2893.37 -6767.37
-13.5263 6816.88 -3971.75
3821.19 4039.3 -5531.31
11001.6 6655.45 -9510.54
11021.9 8864.98 -13031.1
15556.7 18834.2 20632.8
-905.549 -188.484 1583.09
-765.573 -234.009 1692.27
-4316.73 -18245.3 4686.43
12195.1 14193.3 -10445.1
-3745.16 -7074.02 6185.55
-8051.43 -10269 2847.69
1901.97 12239.9 2018.18
-7024.32 -4714.66 7891.58
360.857 9623.38 4576.28
562.448 2605.04 449.773
-3461.59 -1274.9 -5745.48
8831.11 10443.6 -197.08
1128.58 9001.74 -5631.52
1622.41 4885.02 -3470.98
-7352.45 -5098.61 -3531.53
-8258.32 -15453.6 11046.2
-1647.91 -16201 959.465
-4423.79 14990.5 6743.57
-264.774 -18860 4606.46
1589.68 1.9749 3293.55
-3151.57 -2239.91 -3609.43
469.993 -3736.96 -2849.41
1886.03 581.021 -6547.43
1185.51 4490.93 -2941.71
103.827 9069.5 475.941
-1295.93 -1806.03 -482.445
-2251.59 -18443.1 -2757.82
2194.56 4272.04 -3616.65
1652.28 3180.97 -1348.6
-2805.92 10777.5 -4958.39
3125.49 3370.32 1237.41
101.314 -7382.71 7809.04
5249.72 -1843.74 7905.56
4548.6 1530.07 -6245.51
1638.43 2882.44 -109.287
-4320.5 -4674.36 4389.15
1470.45 2568.44 -2934.92
392.095 936.052 -1869.37
5670.45 6156.04 -150.048
1973.36 6451.89 12056.6
1746.95 4383.63 12389.5
-2525.54 -233.95 5808.92
706.783 1315.69 -6637.72
-812.26 -620.892 1094.31
-3022.27 629.249 6490.52
-3546.98 -8287.01 -9305.31
-1021.78 -267.649 3401.58
-470.931 -414.584 576.259
1804.32 -9619.35 5533.87
-448.406 4643.58 -2074.51
-688.032 -771.623 -1449.27
1779.6 819.626 2723.31
-1373.43 -229.01 -4858.17
-3252.19 -633.911 6394.62
-217.865 2413.49 4142.61
-1034.1 -17540.8 3430.54
1007.35 1810.26 864.246
1917.21 358.385 3980.87
-1124.62 -1319.89 3582.77
-3274.43 -13154.3 8663.44
1484.73 3387.3 -3922.51
-476.811 3592.22 -5980.16
1498.39 429.852 4161.86
-870.2 -3811.41 -2963.21
3632.96 -917.631 5057.54
-8270.29 -14669.6 1205.48
14906.4 20748.5 793.763
1625.26 2013.4 1547.14
4313.41 4049.02 -9691.94
-1384.91 1672.11 5770.79
7260.15 6415.53 4844.53
-7704.98 -15178.5 -33.6855
976.183 4245.05 -3369.96
1387.55 2982.01 4882.74
-5365.27 -8296.34 -5997.49
-1641.15 -2107.75 5143.57
-1193.36 -2652.36 -2233.88
-2130.7 -1862.12 5079.93
3275.51 16849.6 -2351.73
-1560.04 -16649.9 6976.27
1694.09 16955.3 -2140.55
4280.36 9226.97 -694.352
433.981 -6047.24 11410.4
-4389.27 -5235.49 -7177.27
2611.24 10982.1 -544.933
-3037.09 -5654.71 6157.01
1009.15 2185.87 -4457.78
-843.769 -1081.53 8814.77
-182.745 -426.96 -1892.04
1984.41 1564.41 13129.6
5359.15 11722.5 2732.18
-7554.15 -13327.1 -2518.97
-3180 6535.88 -12681.6
-2893.22 -4949.86 -4457.3
-550.585 -2101.22 3801.16
1517 4699.13 -1385.5
0.00986551 2254.68 -2883.58
0.0158576 8031.39 -13344.2
3091.75 -948.696 -2561.54
3729.73 -4777.8 590.407
0.00290267 44.6094 10614.1
0.00865387 1947.72 13546.8
-1557.92 8306.5 -8613.56
3712.2 -10205 -3509.26
-13433.9 -148.788 -10239.1
-0.00854666 -131.32 -121.756
236.045 -6007.9 -3016.71
0.0158374 -1155.21 -4060.12
-0.0121371 9313.94 11508.3
0.0114337 -415.023 996.007
-4795.29 -5346.22 11532.7
0.0147611 421.364 -1529.7
0.0065831 2759.24 -21782.5
-0.0197523 -6928.99 -11296.5
-0.00894047 -2876.61 -6589.67
0.00186175 -6035.53 -3100.91
-237.3 345.681 1009.99
-2146.87 8201.15 -8584.69
-8195.95 -14236.1 -22436.9
6875.58 -13321.5 -4085.07
-0.0144264 6361.4 4556.78
-0.0200128 -6359.87 -2341.66
-7622.68 9892.49 -6727.16
2219.49 -2002.39 -519.399
12140.4 -1773.54 -12236.7
35.2859 -7793.12 10622.9
-4584.44 6125.2 3096.23
-113.666 -1923.84 3691.28
-6512.7 15249.7 5721.2
-7663.27 -7.82552 -13652.5
2466.76 -284.449 11956.4
235.021 1868.29 -9692.88
-3646.46 4220.23 4658.52
4852.49 -9417.24 1957.31
3878.01 -10962.2 181.108
1105.3 -5960.24 1210.49
-15844.9 4906.07 -6728.98
9773 -11788.5 -1934.94
7171.89 953.997 5328.52
-4942.8 -2490.32 -10037.6
-14491.2 8113.03 -2442.78
-14923.7 8379 3363.86
-21813.7 4660.54 -24553.3
-11370.2 8786.57 1115.33
5490.02 -4201.25 5764.29
12520.9 -2673.88 -8703.38
2534.16 403.562 -3048.84
-10878.1 4869.18 6835.58
-2168.42 1090.03 122.523
26443.1 -12802.4 -6424.77
-15899.2 4699.36 26145.5
-16665.2 10311.2 -9714.4
-2984.8 8289.17 1618.45
-5662.72 5741.68 4191.98
24451.9 -11128.3 5242.16
-2404.45 -759.373 -5680.64
-5913.82 3354.34 -1124.65
1839.27 -2310.45 -578.758
5481.17 -9398.45 15029.3
75.4779 4424.01 -6299.02
1078.68 -4099.52 5354.74
-534.668 -2698.66 -12207.7
4833.02 -10908.7 1491.46
-279.694 481.035 1212.47
727.58 6603.83 24004.2
2041.64 -4498.64 -4001.7
745.112 -3577.02 5358.15
5284.62 -9518.71 199.171
-9577.28 4599.88 -14642.7
-2321.53 713.417 -2042.39
-8439.52 15306.1 12295.6
-6778.92 -8937.94 -21073.1
10396.6 1749.36 15653
-24737.9 11143.2 -17478.3
7321.94 -17147.4 -5852.61
-2601.89 17366.2 15318.6
5586.05 -8693 -3599.6
5442.59 -5959.59 69.8325
1744.38 -4675.83 -3064.68
-2988.2 11193.8 20555.1
-4664.16 17276.2 15755
6562.01 -2392.22 9414.97
15821.9 -9150.5 8669.51
2434.06 -5857.18 -4247.52
530.255 38.545 -2104.65
3688.24 -2705.11 5991.75
25395.1 -15401 4880.46
-328.353 2322.93 5092.31
-4553.72 11424.3 4589.22
-6114.54 7724.65 -14669.4
-2369.97 1078.49 -1935.35
17074.8 -26814 -19018.6
707.375 1341.97 24018.3
-2044 5745.81 -12616.2
22207 -14173.8 -2426.68
274.152 -2073.68 3919.34
-11886.1 3102.57 9485.8
1949.36 -5778.69 9888.67
2269.93 4890.42 -15445.5
-2508.7 763.705 -2179.59
2571.15 -4415.37 -36074.7
-9430.59 6386.05 849.578
-3082.67 2543.73 -4232.18
-10468.4 2965.32 28666.1
22622.3 -17238.5 -20969.4
3715.05 -859.199 -10928.5
-18732.6 14181.4 12637.6
-20083.3 12595.2 -21817.3
21300.3 -15548.6 -2395.53
-9696.83 12630.6 -3875.16
-6541.15 14611.1 1787.19
7788.92 -8601.26 -785.09
-2397.09 -4083.01 12393.9
439.918 -683.932 -2219.88
1707.93 4845.53 -10566.7
4992.52 -8357.65 10791
-2773.58 6143.66 -10004.6
-8981.96 4515.8 -8682.89
12865.2 -11397.5 3504.59
4256.87 -7083.71 8236.77
-2868.52 2134.75 2485.62
20998.7 -14215 12968.1
-445.887 -760.689 -2939.03
-9367.79 5828.51 -8414.2
-8898.75 9523.17 3720.26
-9939.33 7628.28 -1150
1842.31 -3662.84 9264.55
2409 -3772.88 -3645.02
-2640.64 3048.66 -8898.85
-957.542 231.581 3134.97
-6848.33 12072.6 -13344.5
-5053.46 7072.87 1917.82
-3455.85 6068.33 7003.72
662.756 -422.3 2389.9
-2807.86 3790.46 6197.28
965.452 -1500.96 -1485
-1783.03 3497.47 664.26
3309.97 -5811.21 6012.81
-964.611 -172.73 7954.97
4735.95 -5413.88 -11688.5
-2145.38 2114.25 -272.184
-2068.34 4602 11315.1
-10648.2 11637.7 -5582.93
2094.57 -3461.04 13420.7
6732.58 -6607.05 -1130.73
-667.011 -1011.11 -11801
-332.891 403.898 406.423

VECTORS source_imag double
-0.0176386 10266.1 -791.947
-0.0129638 -8633.3 1751.94
0.0023098 13006.3 -6728.46
0.00266352 2400.83 -2257.36
-0.0217731 -750.067 1181.29
-0.0178873 5086.56 2553.75
-0.00645099 -3879.05 -2653.29
-0.0109022 115.067 -7325.75
0.00703653 732.846 3540.65
-0.00177668 2899.52 22312.8
-0.0104753 -1996.47 1459.92
-0.00546275 -6692.01 2474.6
-0.0154433 3877.32 289.664
-0.00579249 1396.33 2929.04
-0.00825213 12188.2 2411.89
-0.00268287 -301.61 -352.17
-0.00623024 -249.71 -225.825
-0.00262125 1121.36 3572.46
-0.00163597 11430 18004.3
-0.0145508 -12502.8 -4383.93
-0.00839422 111571 -76427.6
-0.000767155 -12686.4 12900.2
-129362 23158.4 -87385.4
-0.0112877 -8113.66 10059.4
140476 90940.9 16886.6
15776.1 -21049.7 21703.5
0.00326356 -4015.6 754.438
0.0160656 4388.73 -1852.39
-3231.21 4859.54 -1929.97
0.0065378 -771.344 -158.471
-18559.5 7004.88 7012.91
0.0209744 -10438.6 627.529
5077.42 -4336.01 -6622.86
-0.0101882 1704.74 -18965.8
-0.0178127 3365.98 -17598.2
2753.12 1655.71 -10075.4
0.0182305 4032.92 -8393.79
-611.934 7890.9 46.7593
-358.444 2871.72 -1271.57
36659 3117.61 19361
0.0172451 -1375 -112.77
-2410.25 658.927 -6164.78
-2452.3 -774.775 -6703.86
-4859.4 16047.1 -2221.58
-4011.3 26826.6 10297.9
7116.7 3042.62 6618.3
-4294.21 -4612.7 11754.2
-6898.47 2554.73 6031.53
16207.5 -421.34 -8075.96
-3748.1 701.674 1933.18
-0.0071475 -642.48 2033.96
0.00308135 -23397 20760.1
143.478 -4815.85 2420.68
-169.765 4560.87 -1030.49
-12831.1 -7133.64 2126.61
-9301.2 -1884.79 4295.6
0.00196649 544.151 11769.8
-18887.6 -8584.21 3323.88
17654 9417.35 6389.87
-16499.9 -8867.77 -4971.59
-9893.73 -3157.79 18987.7
-12237 -6716.25 -4459.82
12675.2 -4462.97 -6259.81
13095.4 2357.6 -9364.3
-1434.37 -7339.63 2858.32
2866.57 -4471.31 -1224.49
-5609.15 6879.92 2825.1
5554.63 1747.95 -4360.31
389.823 1386.35 3104.56
16880.1 -258.943 -9236.91
7618.45 8470.98 -2677.47
3900.98 -769.283 -3070.24
4472.33 5878.75 -8255.61
-15877.9 -930.446 14681.5
-114.459 -313.074 -244.984
-117.646 830.305 3571.08
8345.57 5708.39 -1638.15
-397.15 -2390.08 -5776.12
8573.4 -889.955 11927.9
19519.4 14024.2 2312.74
18825.7 5654.44 -11578.3
-23053.3 -3406.7 11148.1
-0.0102752 -43414.2 36050.7
0.019876 1697.83 -865.325
-19598.8 7159.27 -19214.4
9770.33 644.66 7267.68
0.0020068 -2940.57 2099.51
11127.9 -12794 19329.7
69978.6 -89439.8 97978
2400.94 34209 -26514.2
-50009.7 -40911.2 2077.44
23371.7 -24145.8 33710
4482.52 -8303.21 12147.7
0.00171757 -16549.1 10978.1
-522.743 -5129.34 -8636.52
0.00985339 -32855.8 18300.6
0.00308836 8510.44 -2623.15
-37046.4 -19435.4 -9005.03
148565 -22661.6 98648.2
-2497.52 2926.33 -2716.97
-4308.4 -2719.24 -2289.64
10406.3 1731 4847.48
-12745 -3936.78 -5746.15
-3657.45 6409.12 -4313.57
-1533.5 2176.8 -772.72
-17699.5 1557.1 11100.9
3280.57 -2912.21 907.91
-5114.97 -2575.41 7633.36
-1469.16 12552.5 -2665.56
5455.35 -7075.68 3658.24
-519.059 -1031.64 -416.135
-7242.44 1931.58 7764.93
15369.2 -6098.2 -8669.55
820.217 -2798.55 1100.18
-4878.01 -24014.9 3107.8
1182.86 846.89 -2123.95
2633.75 188.757 -4573.85
4720.98 -292.21 -10454.6
1283.36 2758.23 -3736.75
-22111.8 -6304.41 12113
-11860.1 -4827.1 -12938.8
-325.963 -2701.49 2045.12
7198.18 -21998.7 -7456.55
3738.56 -3863.4 -5888.02
3266.31 2245.66 -143.18
922.895 3043.6 -17952.9
17029.6 9849.38 -4472
-116.373 -1606.31 -1579.25
2911.29 -5853.46 -10360.5
-8972.47 -14054.8 -2128.76
-10368.9 -3471.79 -5507.86
-324.674 -1189.58 7203.81
945.766 -11422.7 -2182.81
-2014.81 -5454.75 10263.3
-9951.47 -7740.47 3202.91
2122.04 9013.34 -9941.65
5468.63 3106.69 2966.44
-11.5847 -3111.98 -2307.54
-5457.04 -2471.76 -2188.97
-4293.18 8161.87 713.272
-7949.73 -5742.05 -4054.67
28430.9 -6565.12 25708.9
-7712.93 21616 -4563.13
6337.52 -567.815 10702.5
-449.321 -2974.46 -725.59
-3351.76 16660.1 -598.738
3085.33 7197.69 15024.9
1770.28 -6559.58 -938.174
-3352.62 -596.365 -10842.4
-5088.56 13654.5 3356.97
30857.1 -30456 16974.8
20705 -34367.6 8835.32
1848.77 5137.3 2632.32
-62.3188 8131.62 4043.22
-16708.2 20260.4 -8688.51
-1388.92 -3678.61 -2328.87
7964.89 606.547 5562.53
2288.84 3736.36 9520.81
4331.97 -15514.1 1119.93
-4880.3 -8.1939 -3209.96
-2177.6 2720.17 -1106.06
4446.67 5438.59 5459.46
989.105 14580.3 11414.3
-15159.9 14457 -11296.9
-5601.77 738.698 -10485
17025.7 -6769.45 21065.6
-4923.77 18716.9 -737.772
4475.65 -4505.9 6502.31
-1754.96 2752.55 -8801.67
3717.3 -15402.4 2793.39
4714.72 12555.3 -12144.6
-3842.68 -12808.9 -1237.51
-2533.69 -303.755 -9159.87
857.14 8321.48 5877.55
-15654.3 -19852 -16042.2
7467.54 8214.45 -3776.05
14421.6 6154.65 11066.7
-5013.59 -3285.41 3716.32
-2780.56 1346.61 10511.4
1062.46 636.645 -2657.9
16143.2 22710.6 -1160.34
1089.48 -1454.94 13447.6
-1598.92 -2374.46 -6058.27
7353.26 6020.91 1830.07
-186.659 4140.3 -241.691
5678.7 14456.3 -1990.44
1081.19 2742.6 -3027.88
4690.31 6246.64 4849.28
2312.01 -16495.8 6311.72
3477.54 -7758.76 2633.98
2568.73 906.408 -4067.94
3207.31 1745.43 -3399.87
-4428.12 -1476.55 -3710.92
17047.2 6418.85 11559.6
128.159 5928.3 -4418.7
2730.88 -8343.88 2903.62
-3143.69 -5351.99 5897.68
-3693.14 12399.1 -15938.4
-1583.3 1359.87 -4823.91
-61742.5 30416.5 -52454.4
6842.93 -13574.6 7860.4
-192.792 17710.4 -4180.75
5933.86 -13502.2 8414.01
-15822.1 16380.8 -11483.5
-12313.1 -3771.2 -6151.34
-5845.83 -9996.1 1624.74
22921.8 -26315.2 28456.7
-19619.9 42288.6 -33667.4
10252.1 -40714.5 30352.7
-63372.1 -2613.21 -35401.8
-132678 -27988.4 -53442.8
66049.5 20180.8 29176.1
-44980.5 20456.1 -43310.3
-10668.8 -5360.9 -4226.38
-1890.09 -33569.8 23033
2728.12 12779.6 -10110.8
5550.76 15730.1 -11536.5
521.907 -1496.19 14491.7
816.245 -3081.54 -3067.39
6521.31 3945.1 -1820.2
-842.324 -3757.3 1624.85
400.752 3935.14 -1875.58
7726.52 -404.602 -13168.9
-8477.12 -5580.92 -5768.79
-12363.1 -7576.84 10593.8
-16181.9 -21246 -14258.3
-17864.6 -17212.5 -5294.23
-1268.4 513.008 956.276
10737 -19054.9 -10782.9
-10760.2 -6085.09 1108.75
7440.5 1941.7 -17800.6
-1407.89 -2622.7 -6032.63
9312.22 3441.7 -23925.4
2942.53 891.122 -6182.92
12275.1 15685.4 -2973.2
5910.53 -1521.28 -6583.44
3404.22 -3932.76 -5384.25
18603.9 22148.6 -4877.34
2371.14 -21468.2 -11538.6
-27824.1 -11053.3 14531.5
-25533.2 -17366.1 14692.1
4131.25 2035.4 1830.58
-4271.72 10455.6 -15949.2
4764.34 -2945.04 13487.5
-9214.5 -8477.43 705.311
-3336.76 -8116 6827.29
3792.81 8393.95 -5667.93
6660.45 -5198.43 -5301.28
2160.62 -19290.8 -2655.68
-7919.65 9763.43 3231.13
1689.95 19172.9 -109.19
-11426 -19851.2 8798.47
308.368 7216.68 7533.06
7471.7 -1867.07 -6317.45
-10815.8 17369.2 7371.14
2776.5 1111.88 -6254.18
-147.516 -6064.66 2251.07
-7523.28 5100.18 4988.89
-1528.72 -6628.9 3985.6
2398.41 9554.76 -3412.9
2641.66 -5117.04 -2047.18
5823.17 -12212.9 9006.95
626.24 5395.68 -862.535
12858.6 7232.24 4172.19
5943.13 5478.18 -1019
-14474 -10072.6 5760.84
3297.84 15589.9 7609.16
-3081.84 21255 2160.4
9866.76 -5404.52 -9054.12
-7574.44 -12089 -25428
-10723.4 -9053.55 -5099.77
-8351.45 -8704.43 180.984
7687.59 4964.98 -3692.42
16923.2 -10903.2 -18272.2
-18352.7 5455.91 16035.8
2023.98 10757.2 2456.06
1614.7 2901.37 -3351.51
6101.62 -7668.28 -7479.67
2676.39 11010.4 -5713.73
-13094.4 569.638 14361.8
2199.03 -4245.6 -8381.12
-585.091 2299.48 5545.74
10560.5 6899.6 -5524.18
-7659.1 -8352.05 1955.69
-8218.22 -8697.38 1000.76
-23543.9 -36147.5 7703.43
-499.073 -5778.28 6265.56
7150.65 15971.9 -5396.8
12062.5 6365.74 4858.36
15582.2 4222.47 7689.77
13895.7 18109.9 -2315.02
-5462.18 -3860.5 -1087.46
-9306.82 -3500.49 -5913.72
9710.17 17032.9 1145.44
-59976.9 26527.2 -56227
-10468.5 -12474.1 -1668.73
-2316.66 -3887.23 1330.56
-15311.2 7790.13 -12312.5
-8339.64 8025.88 -10677.5
-7049.73 13523.3 -10438
626.594 16268.4 -2253.15
16067.5 429.224 12991.1
-4923.82 637.847 -10863.5
3731.73 -6840.58 2986.1
-1710.89 -4311.35 3107.91
-16447 -7999.08 16040.3
2488.95 1386.3 14254.6
6526.85 4393.72 6568.52
-690.715 -917.992 1489.24
-865.542 -263.418 1432.66
2682.59 3213.38 -1836.13
-11358 -8249.79 -5062.82
2090.63 -21429.7 1975.45
1910.05 6935.06 6201.38
3946.26 7467.12 9974.07
-1581.98 -14160.2 -7626.65
-2718.41 2568.16 -4798.02
-10342 7711.75 -12756
-2262.58 4423.51 -2313.52
4114.29 4139.6 5032.64
-4564.52 -10838.1 -9190.55
-663.524 -7881.51 -1950.75
79.1271 -10244.5 -10951.2
-10170 -4529.96 18641
-825.791 1547.39 7979.93
1237.03 7432.48 5745.67
-2226.89 -1825.17 5275.1
3292.78 10704.9 6220.23
-12645.7 -1902.6 -13804.7
-757.674 -9008.69 -2219.32
2325.31 -4988.55 4349.36
1813.2 -9138.35 4732.35
-1893.52 1862.15 -6299.56
3083.4 10066.1 4210.59
3016.12 3163.02 -7425.31
5946.37 9157.9 -4.79925
-4627.98 13828.2 4460.74
11687.9 7735.85 -9161.17
-1360.34 -4047.1 9754.4
1108.94 3242.74 -3295.07
21408.4 17715.7 1840.14
147.34 157.66 734.769
-569.335 -3266.57 248.486
4769.86 -2188.18 6361.34
2758.89 -20567.5 5315.69
12505.6 14610.2 2164.95
-9348.15 -2302.2 -6092.27
-10.898 6109.47 -3557.86
3448.21 3570.22 -5012.92
9799.42 5957.47 -8441.41
9958.18 8046.87 -11766.4
13945.1 16857.5 18346.7
-920.306 -270.904 1477.99
-750.209 -301.376 1462.61
-3979.8 -16438 4316.71
11024 12740.2 -9460.1
-3377.69 -6379.92 5578.63
-7079.21 -9150.03 2408.75
1729.49 10903.7 1758.76
-6173.97 -4179.56 6907.91
213.202 8691.29 4265.38
412.94 2316.46 533.582
-3119.38 -1114.11 -5244.94
7841.9 9237.07 -143.735
1022.54 8033.46 -4827.31
1479.6 4387.8 -3082.61
-6635.91 -4453.86 -3288.58
-7477.57 -13949.7 9996.54
-1451.6 -14517 832.664
-3989.62 13608.1 6085.96
-261.869 -17025.2 4081.46
1426.49 -18.4787 2974.32
-2831.1 -2023.56 -3220.58
392.443 -3392.61 -2511.2
1703.62 470.8 -5944.94
1071.28 4093.4 -2667.19
122.087 8231.41 394.746
-1210.87 -1693.04 -435.43
-2013.76 -16454.3 -2353.62
1944.37 3786.29 -3204.26
1501.55 2880.04 -1229.18
-2579.94 9822.61 -4548.73
2830.27 3026.59 1149.93
154.203 -6532.87 7189.42
4706.08 -1719.41 7141.92
4095.97 1401.04 -5616.82
1489.04 2450.54 -285.333
-3924.13 -4156.06 4038
1308.31 2322.05 -2585.36
266.096 733.172 -1670.81
5159.69 5604.8 -110.078
1739.47 5766.57 10873.6
1627.06 4016.84 11160.1
-2304.03 -231.12 5283.2
673.405 1238.91 -6028.4
-824.122 -676.143 1032.66
-2735.29 401.607 5709.29
-3193.31 -7447.65 -8313.94
-962.109 -263.461 3190.93
-341.079 -384.563 300.128
1610.23 -8721.53 4987.08
-364.176 4140.53 -1788.07
-586.759 -650.29 -1335.27
1616.49 733.783 2488.32
-1281.87 -297.158 -4303.32
-2964.24 -595.81 5817.16
-123.851 2213.97 3562.29
-967.332 -15796.1 2980.97
912.772 1665.93 773.541
1740.45 317.469 3624.02
-1019.45 -1130.62 3345.29
-2930.03 -11758.9 7782.7
1333.35 3054.32 -3581.11
-376.773 3281.2 -5134.82
1344.43 344.928 3802.27
-791 -3447.36 -2560.51
3218.31 -866.636 4530.04
-7491.19 -13292.6 1095.46
13345.7 18569.2 714.783
1445.43 1837.42 1351.91
3848.87 3608.08 -8660.71
-1294.91 1434.83 5253.61
6526.04 5747.1 4372.57
-6936.34 -13755.8 21.2193
868.427 3841.48 -3103.91
1236.57 2659.7 4318.44
-4801.86 -7435.06 -5450.71
-1406.15 -1743.58 4553.5
-1088.42 -2411.54 -1992.86
-1848.66 -1618.96 4401.07
2961.33 15025.2 -2006.93
-1346.39 -14942 6432.08
1540.23 15108.5 -1844.68
3846.26 8275.95 -611.656
384.173 -5411.33 10190.1
-3958.63 -4679.35 -6520.05
2323.38 9754.35 -402.221
-2733.04 -5098.6 5511.88
948.896 2036.73 -4031.98
-774.484 -1025.23 7880.47
-151.396 -357.853 -1676.92
1772.87 1398.3 11728
4799.56 10549.8 2413.63
-6808.71 -12053.3 -2248.76
-2881.49 5882.97 -11454.5
-2541.12 -4393.89 -3880.02
-502.737 -1894.53 3349.33
1355.35 4251.4 -1313.83
-0.00427049 2032.78 -2599.78
0.00366495 7233.56 -12018.6
2863.6 -984.944 -2227.11
3380.37 -4276.9 455.337
0.00250418 39.867 9485.69
0.0105679 1737.7 12086
-1457.05 7845.05 -7650.05
3398.3 -9331.11 -3223.24
-12030.2 -102.612 -9150.06
0.00731368 -77.7872 -72.1144
393.583 -5326.54 -2571.7
0.0195882 -1078.7 -3791.22
0.00131463 8417.04 10400.1
0.00236095 -338.487 812.338
-4328.17 -4751.33 10310
0.00794405 352.837 -1280.92
0.00317833 2490.88 -19663.9
-0.0065698 -6251.93 -10192.7
0.000129445 -2580.18 -5910.61
0.024294 -5357.33 -2752.45
-230.61 457.572 827.979
-1997.11 7674.62 -7799.07
-7368.1 -12843.7 -20220
6096.85 -11860 -3657.13
0.00610907 5743.93 4114.49
-0.000170035 -5507.33 -2027.76
-6863.29 8909.58 -6060.45
2102.14 -1902.13 -484.836
10864.5 -1668.08 -10790.3
23.9504 -7016.39 9578.68
-4226.09 5671.79 2821.31
-177.852 -1646.11 3316.69
-5938.25 13931.2 5256.37
-6759.67 -275.692 -12364.6
2187.93 -246.667 10674.8
256.562 1371.23 -8734.14
-3313.74 3728.01 4386.94
4402.72 -8592.76 1691.75
3543.98 -10032.8 183.16
1055.47 -5627.68 1020.22
-14193.9 4442.26 -6000.18
8743.32 -10465.9 -1664.97
6426.5 896.799 4807.59
-4490.83 -2224.21 -9047.4
-13066.7 7360.2 -1993.66
-13460.7 7530.07 2904.94
-19652.4 4296.73 -22029.5
-10232.8 7944.69 1043.31
4909.56 -3745.53 5174.97
11207.8 -2355.52 -7865.98
2247.77 408.577 -2765.79
-9626.37 4226.38 6183.54
-1796.64 907.72 88.5278
23793.3 -11515.5 -5844.56
-14434.1 4302.56 23547
-15128.9 9339.97 -8711.13
-2739.31 7653.23 1385.37
-5175.69 5321.21 3713.03
22080.9 -10043.6 4741.86
-2030.77 -766.57 -5146.37
-5373.27 3085.07 -949.904
1635.7 -1995.41 -621.91
4868.51 -8343.87 13357.8
48.6488 4151.07 -5793.77
926.325 -3539.77 4905.09
-498.783 -2420.17 -11155.2
4298.49 -9678.25 1384.85
-238.449 417.511 1008.58
630.837 5932.53 21363.7
1863.39 -4094.34 -3601.05
717.269 -3397.02 4902.72
4814.16 -8649.37 223.141
-8732.24 4224.26 -13303.2
-1960.88 613.93 -1693.53
-7599.83 13820.3 11125.5
-5993.41 -8089.72 -18849.3
9306.61 1648.15 14141.1
-22258.6 9961.75 -15784.5
6532.58 -15451.2 -5338.82
-2205.22 15604.5 13906.2
5159.94 -7803.58 -3101.07
4958.14 -5416.94 80.4702
1611.3 -4251 -2582.1
-2659.71 9967.6 18328.5
-4180.9 15601.8 14265.7
5899.03 -2052.39 8646.3
14318.5 -8362.22 7700.3
2218.57 -5318.27 -3822.93
514.783 -15.4656 -1917.73
3350.01 -2482.96 5376.55
22850.2 -13866.1 4528.22
-266.106 2142.47 4794.33
-4044.52 10167.8 4276.34
-5548.55 7012.79 -13294.8
-2131.37 900.012 -1897.66
15426.9 -24191 -17135.4
611.555 1229.89 21644.2
-1691.79 5009.64 -11161.5
19809.9 -12654 -2127.23
178.426 -1786.27 3526.5
-10517.9 2663.07 8533.02
1802.03 -5161.91 8710.47
2090.91 4260.64 -13641.7
-2252.11 703.734 -1915.66
2282.13 -3943.98 -32330.5
-8502.36 5816.49 968.305
-2765.29 2260.1 -3860.29
-9379.34 2628.59 25899.6
20389.2 -15508.7 -18696
3480.54 -869.089 -9905.51
-16877 12776.8 11407.1
-18092.7 11347.9 -19509.3
19000.2 -13805 -2377.34
-8721.93 11374 -3555.8
-5960.09 13312 1524.42
7128.86 -7827.27 -826.73
-2211.52 -3569.47 11043
419.396 -649.36 -2133.76
1578.37 4295.88 -9558.27
4369.81 -7325.75 9472.87
-2412.14 5456.69 -9145.23
-8102.28 4017.52 -8023.58
11702.5 -10358.7 3201.89
3811.7 -6422.01 7603.73
-2546.97 1893.83 2236.48
18928 -12816 11668.8
-373.377 -773.988 -2814.63
-8592.84 5348.3 -7709.31
-8163.47 8748.21 3467.29
-8905.25 6834.99 -1033
1766.13 -3433.15 8500.73
2235.99 -3490.86 -3325.82
-2344.78 2712.34 -7997.45
-893.978 164.294 3027.16
-6251.51 11024.3 -12066.9
-4494.09 6294.58 1690.59
-3100.72 5527.11 6525.52
572.929 -369.614 2008.57
-2560.57 3442.19 5678.51
983.34 -1591.68 -1303.16
-1651.19 3179.63 748.687
2991.17 -5262.99 5558.05
-744.229 -379.094 7242.89
4181.5 -4777.94 -10539.5
-1836.79 1803.2 -273.681
-1863.58 4170.33 10363.3
-9590.92 10477.4 -4998.67
1892.06 -3132.72 12268.8
5961.09 -5846.17 -1113.01
-515.002 -1012.12 -10634.3
-345.817 428.337 275.601

